<?xml version="1.0" encoding="utf-8"?>
<!-- Generator: Adobe Illustrator 19.0.0, SVG Export Plug-In . SVG Version: 6.00 Build 0)  -->
<svg version="1.1" id="Layer_1" xmlns="http://www.w3.org/2000/svg" xmlns:xlink="http://www.w3.org/1999/xlink" x="0px" y="0px"
	 width="1400px" height="980px" viewBox="0 0 1400 980" enable-background="new 0 0 1400 980" xml:space="preserve">
<g id="XMLID_1_">
	<g id="XMLID_79_">
		<path id="XMLID_519_" fill="#FFFFFF" d="M133.7,460.6c-1.7,0-3-1.3-3-3v-290c0-1.7,1.3-3,3-3h253.4c1.7,0,3,1.3,3,3v290
			c0,1.7-1.3,3-3,3H133.7z"/>
		<path id="XMLID_156_" fill="#6F7C82" d="M387.1,167.6v290H133.7v-290H387.1 M387.1,161.6H133.7c-3.3,0-6,2.7-6,6v290
			c0,3.3,2.7,6,6,6h253.4c3.3,0,6-2.7,6-6v-290C393.1,164.3,390.4,161.6,387.1,161.6L387.1,161.6z"/>
	</g>
	<path id="XMLID_95_" fill="#F2F2F2" d="M234.2,193.9c-4.9,0-9.4-2-12.7-5.2c-3.3,3.2-7.7,5.2-12.7,5.2c-4.9,0-9.4-2-12.7-5.2
		c-3.3,3.2-7.7,5.2-12.7,5.2c-4.9,0-9.4-2-12.7-5.2c-3.3,3.2-7.7,5.2-12.7,5.2c-9.9,0-18-8.1-18-18v-8.3h137.3v8.3
		c0,9.9-8.1,18-18,18c-4.9,0-9.4-2-12.7-5.2"/>
	<rect id="XMLID_80_" x="259.6" y="167.6" fill="#F2F2F2" width="127.5" height="290"/>
	<g id="XMLID_3_">
		
			<line id="XMLID_4_" fill="#FFFFFF" stroke="#6F7C82" stroke-width="6" stroke-linecap="round" stroke-linejoin="round" stroke-miterlimit="10" x1="275.4" y1="212.7" x2="365.4" y2="212.7"/>
		
			<line id="XMLID_5_" fill="#FFFFFF" stroke="#6F7C82" stroke-width="6" stroke-linecap="round" stroke-linejoin="round" stroke-miterlimit="10" x1="154.3" y1="232.4" x2="365.4" y2="232.4"/>
		
			<line id="XMLID_6_" fill="#FFFFFF" stroke="#6F7C82" stroke-width="6" stroke-linecap="round" stroke-linejoin="round" stroke-miterlimit="10" x1="154.3" y1="254.9" x2="365.4" y2="254.9"/>
		
			<line id="XMLID_7_" fill="#FFFFFF" stroke="#6F7C82" stroke-width="6" stroke-linecap="round" stroke-linejoin="round" stroke-miterlimit="10" x1="154.3" y1="277.5" x2="365.4" y2="277.5"/>
		
			<line id="XMLID_8_" fill="#FFFFFF" stroke="#6F7C82" stroke-width="6" stroke-linecap="round" stroke-linejoin="round" stroke-miterlimit="10" x1="154.3" y1="300" x2="365.4" y2="300"/>
		
			<line id="XMLID_9_" fill="#FFFFFF" stroke="#6F7C82" stroke-width="6" stroke-linecap="round" stroke-linejoin="round" stroke-miterlimit="10" x1="154.3" y1="322.5" x2="365.4" y2="322.5"/>
		
			<line id="XMLID_10_" fill="#FFFFFF" stroke="#6F7C82" stroke-width="6" stroke-linecap="round" stroke-linejoin="round" stroke-miterlimit="10" x1="154.3" y1="345" x2="365.4" y2="345"/>
		
			<line id="XMLID_11_" fill="#FFFFFF" stroke="#6F7C82" stroke-width="6" stroke-linecap="round" stroke-linejoin="round" stroke-miterlimit="10" x1="154.3" y1="367.5" x2="365.4" y2="367.5"/>
		
			<line id="XMLID_12_" fill="#FFFFFF" stroke="#6F7C82" stroke-width="6" stroke-linecap="round" stroke-linejoin="round" stroke-miterlimit="10" x1="154.3" y1="390.1" x2="365.4" y2="390.1"/>
		
			<line id="XMLID_13_" fill="#FFFFFF" stroke="#6F7C82" stroke-width="6" stroke-linecap="round" stroke-linejoin="round" stroke-miterlimit="10" x1="154.3" y1="412.6" x2="365.4" y2="412.6"/>
		
			<line id="XMLID_14_" fill="#FFFFFF" stroke="#6F7C82" stroke-width="6" stroke-linecap="round" stroke-linejoin="round" stroke-miterlimit="10" x1="154.3" y1="435.1" x2="365.4" y2="435.1"/>
	</g>
	<path id="XMLID_77_" fill="#E2E2E2" d="M378.9,167.6v8.3c0,9.9-8.1,18-18,18c-4.9,0-9.4-2-12.7-5.2c-3.3,3.2-7.7,5.2-12.7,5.2
		c-4.9,0-9.4-2-12.7-5.2c-3.3,3.2-7.7,5.2-12.7,5.2c-4.9,0-9.4-2-12.7-5.2c-3.3,3.2-7.7,5.2-12.7,5.2c-4.9,0-9.4-2-12.7-5.2
		c-3.3,3.2-7.7,5.2-12.7,5.2h0v-26.3H378.9z"/>
	<g id="XMLID_15_">
		<path id="XMLID_136_" fill="#FFFFFF" d="M158.2,183.8c-3.8,0-6.9-3.1-6.9-6.9v-18.5c0-3.8,3.1-6.9,6.9-6.9s6.9,3.1,6.9,6.9v18.5
			C165.1,180.7,162,183.8,158.2,183.8z"/>
		<path id="XMLID_122_" fill="#6F7C82" d="M158.2,154.5c2.2,0,3.9,1.8,3.9,3.9v18.5c0,2.2-1.8,3.9-3.9,3.9s-3.9-1.8-3.9-3.9v-18.5
			C154.3,156.2,156.1,154.5,158.2,154.5 M158.2,148.5c-5.5,0-9.9,4.4-9.9,9.9v18.5c0,5.5,4.4,9.9,9.9,9.9s9.9-4.4,9.9-9.9v-18.5
			C168.1,152.9,163.7,148.5,158.2,148.5L158.2,148.5z"/>
	</g>
	<g id="XMLID_17_">
		<path id="XMLID_120_" fill="#FFFFFF" d="M183.6,183.8c-3.8,0-6.9-3.1-6.9-6.9v-18.5c0-3.8,3.1-6.9,6.9-6.9s6.9,3.1,6.9,6.9v18.5
			C190.5,180.7,187.4,183.8,183.6,183.8z"/>
		<path id="XMLID_117_" fill="#6F7C82" d="M183.6,154.5c2.2,0,3.9,1.8,3.9,3.9v18.5c0,2.2-1.8,3.9-3.9,3.9s-3.9-1.8-3.9-3.9v-18.5
			C179.7,156.2,181.4,154.5,183.6,154.5 M183.6,148.5c-5.5,0-9.9,4.4-9.9,9.9v18.5c0,5.5,4.4,9.9,9.9,9.9s9.9-4.4,9.9-9.9v-18.5
			C193.5,152.9,189,148.5,183.6,148.5L183.6,148.5z"/>
	</g>
	<g id="XMLID_23_">
		<path id="XMLID_115_" fill="#FFFFFF" d="M208.9,183.8c-3.8,0-6.9-3.1-6.9-6.9v-18.5c0-3.8,3.1-6.9,6.9-6.9s6.9,3.1,6.9,6.9v18.5
			C215.8,180.7,212.7,183.8,208.9,183.8z"/>
		<path id="XMLID_87_" fill="#6F7C82" d="M208.9,154.5c2.2,0,3.9,1.8,3.9,3.9v18.5c0,2.2-1.8,3.9-3.9,3.9h0c-2.2,0-3.9-1.8-3.9-3.9
			v-18.5C205,156.2,206.7,154.5,208.9,154.5L208.9,154.5 M208.9,148.5c-5.5,0-9.9,4.4-9.9,9.9v18.5c0,5.5,4.4,9.9,9.9,9.9
			c5.5,0,9.9-4.4,9.9-9.9v-18.5C218.8,152.9,214.4,148.5,208.9,148.5L208.9,148.5z"/>
	</g>
	<g id="XMLID_34_">
		<path id="XMLID_69_" fill="#FFFFFF" d="M234.2,183.8c-3.8,0-6.9-3.1-6.9-6.9v-18.5c0-3.8,3.1-6.9,6.9-6.9s6.9,3.1,6.9,6.9v18.5
			C241.1,180.7,238,183.8,234.2,183.8z"/>
		<path id="XMLID_66_" fill="#6F7C82" d="M234.2,154.5c2.2,0,3.9,1.8,3.9,3.9v18.5c0,2.2-1.8,3.9-3.9,3.9h0c-2.2,0-3.9-1.8-3.9-3.9
			v-18.5C230.3,156.2,232.1,154.5,234.2,154.5L234.2,154.5 M234.2,148.5c-5.5,0-9.9,4.4-9.9,9.9v18.5c0,5.5,4.4,9.9,9.9,9.9
			c5.5,0,9.9-4.4,9.9-9.9v-18.5C244.1,152.9,239.7,148.5,234.2,148.5L234.2,148.5z"/>
	</g>
	<g id="XMLID_40_">
		<path id="XMLID_63_" fill="#FFFFFF" d="M259.6,183.8c-3.8,0-6.9-3.1-6.9-6.9v-18.5c0-3.8,3.1-6.9,6.9-6.9s6.9,3.1,6.9,6.9v18.5
			C266.5,180.7,263.4,183.8,259.6,183.8z"/>
		<path id="XMLID_60_" fill="#6F7C82" d="M259.6,154.5c2.2,0,3.9,1.8,3.9,3.9v18.5c0,2.2-1.8,3.9-3.9,3.9h0c-2.2,0-3.9-1.8-3.9-3.9
			v-18.5C255.7,156.2,257.4,154.5,259.6,154.5L259.6,154.5 M259.6,148.5c-5.5,0-9.9,4.4-9.9,9.9v18.5c0,5.5,4.4,9.9,9.9,9.9
			s9.9-4.4,9.9-9.9v-18.5C269.5,152.9,265,148.5,259.6,148.5L259.6,148.5z"/>
	</g>
	<g id="XMLID_46_">
		<path id="XMLID_57_" fill="#FFFFFF" d="M284.9,183.8c-3.8,0-6.9-3.1-6.9-6.9v-18.5c0-3.8,3.1-6.9,6.9-6.9s6.9,3.1,6.9,6.9v18.5
			C291.8,180.7,288.7,183.8,284.9,183.8z"/>
		<path id="XMLID_54_" fill="#6F7C82" d="M284.9,154.5c2.2,0,3.9,1.8,3.9,3.9v18.5c0,2.2-1.8,3.9-3.9,3.9h0c-2.2,0-3.9-1.8-3.9-3.9
			v-18.5C281,156.2,282.7,154.5,284.9,154.5L284.9,154.5 M284.9,148.5c-5.5,0-9.9,4.4-9.9,9.9v18.5c0,5.5,4.4,9.9,9.9,9.9
			c5.5,0,9.9-4.4,9.9-9.9v-18.5C294.8,152.9,290.4,148.5,284.9,148.5L284.9,148.5z"/>
	</g>
	<g id="XMLID_52_">
		<path id="XMLID_51_" fill="#FFFFFF" d="M310.2,183.8c-3.8,0-6.9-3.1-6.9-6.9v-18.5c0-3.8,3.1-6.9,6.9-6.9s6.9,3.1,6.9,6.9v18.5
			C317.1,180.7,314,183.8,310.2,183.8z"/>
		<path id="XMLID_48_" fill="#6F7C82" d="M310.2,154.5c2.2,0,3.9,1.8,3.9,3.9v18.5c0,2.2-1.8,3.9-3.9,3.9h0c-2.2,0-3.9-1.8-3.9-3.9
			v-18.5C306.3,156.2,308.1,154.5,310.2,154.5L310.2,154.5 M310.2,148.5c-5.5,0-9.9,4.4-9.9,9.9v18.5c0,5.5,4.4,9.9,9.9,9.9
			c5.5,0,9.9-4.4,9.9-9.9v-18.5C320.1,152.9,315.7,148.5,310.2,148.5L310.2,148.5z"/>
	</g>
	<g id="XMLID_58_">
		<path id="XMLID_45_" fill="#FFFFFF" d="M335.6,183.8c-3.8,0-6.9-3.1-6.9-6.9v-18.5c0-3.8,3.1-6.9,6.9-6.9s6.9,3.1,6.9,6.9v18.5
			C342.5,180.7,339.4,183.8,335.6,183.8z"/>
		<path id="XMLID_42_" fill="#6F7C82" d="M335.6,154.5c2.2,0,3.9,1.8,3.9,3.9v18.5c0,2.2-1.8,3.9-3.9,3.9s-3.9-1.8-3.9-3.9v-18.5
			C331.7,156.2,333.4,154.5,335.6,154.5 M335.6,148.5c-5.5,0-9.9,4.4-9.9,9.9v18.5c0,5.5,4.4,9.9,9.9,9.9s9.9-4.4,9.9-9.9v-18.5
			C345.5,152.9,341,148.5,335.6,148.5L335.6,148.5z"/>
	</g>
	<g id="XMLID_64_">
		<path id="XMLID_39_" fill="#FFFFFF" d="M360.9,183.8c-3.8,0-6.9-3.1-6.9-6.9v-18.5c0-3.8,3.1-6.9,6.9-6.9s6.9,3.1,6.9,6.9v18.5
			C367.8,180.7,364.7,183.8,360.9,183.8z"/>
		<path id="XMLID_36_" fill="#6F7C82" d="M360.9,154.5c2.2,0,3.9,1.8,3.9,3.9v18.5c0,2.2-1.8,3.9-3.9,3.9s-3.9-1.8-3.9-3.9v-18.5
			C357,156.2,358.7,154.5,360.9,154.5 M360.9,148.5c-5.5,0-9.9,4.4-9.9,9.9v18.5c0,5.5,4.4,9.9,9.9,9.9s9.9-4.4,9.9-9.9v-18.5
			C370.8,152.9,366.4,148.5,360.9,148.5L360.9,148.5z"/>
	</g>
</g>
<g id="XMLID_101_">
	<g id="XMLID_162_">
		<path id="XMLID_267_" fill="#F9EEAC" d="M194.6,845.1c-13.1,0-24.5-9.3-27.1-22.1c-0.4-1.8-0.6-3.7-0.6-5.6V576.8
			c0-15.3,12.4-27.7,27.7-27.7h141.1c15.3,0,27.7,12.4,27.7,27.7v240.6c0,1.9-0.2,3.7-0.6,5.6c-2.6,12.8-14,22.1-27.1,22.1H194.6z"
			/>
		<path id="XMLID_251_" fill="#6F7C82" d="M335.7,552.1c13.6,0,24.7,11.1,24.7,24.7v240.6c0,1.7-0.2,3.4-0.5,5
			c-2.3,11.2-12.3,19.7-24.2,19.7H194.6c-11.9,0-21.9-8.5-24.2-19.7c-0.3-1.6-0.5-3.3-0.5-5V576.8c0-13.6,11.1-24.7,24.7-24.7H335.7
			 M335.7,546.1H194.6c-16.9,0-30.7,13.8-30.7,30.7v240.6c0,2.1,0.2,4.2,0.6,6.2c2.9,14.2,15.6,24.5,30.1,24.5h141.1
			c14.5,0,27.2-10.3,30.1-24.5c0.4-2,0.6-4.1,0.6-6.2V576.8C366.4,559.9,352.6,546.1,335.7,546.1L335.7,546.1z"/>
	</g>
	<path id="XMLID_107_" fill="#EFDF92" d="M360.4,588.3v229.1c0,1.7-0.2,3.4-0.5,5c-2.3,11.2-12.3,19.7-24.2,19.7h-70.5V588.3H360.4z
		"/>
	<g id="XMLID_129_">
		<path id="XMLID_242_" fill="#C19259" d="M169.9,591.3c-1.7,0-3-1.3-3-3v-11.5c0-10.3,5.7-19.7,14.8-24.5c3.9-2.1,8.4-3.2,12.9-3.2
			h141.1c15.3,0,27.7,12.4,27.7,27.7v11.5c0,1.7-1.3,3-3,3H169.9z"/>
		<path id="XMLID_210_" fill="#6F7C82" d="M335.7,552.1c13.6,0,24.7,11.1,24.7,24.7v11.5H169.9v-11.5c0-9.5,5.4-17.7,13.2-21.9
			c3.4-1.8,7.3-2.8,11.5-2.8H335.7 M335.7,546.1H194.6c-5,0-9.9,1.2-14.3,3.5c-10.1,5.3-16.4,15.7-16.4,27.2v11.5c0,3.3,2.7,6,6,6
			h190.5c3.3,0,6-2.7,6-6v-11.5C366.4,559.9,352.6,546.1,335.7,546.1L335.7,546.1z"/>
	</g>
	<path id="XMLID_96_" fill="#B2834F" d="M195.3,552.1c-4.1,0-8.1,1-11.5,2.8v5.5c0,9.9,8.1,18,18,18c4.9,0,9.4-2,12.7-5.2
		c3.2,3.2,7.7,5.2,12.7,5.2c4.9,0,9.4-2,12.7-5.2c3.2,3.2,7.7,5.2,12.7,5.2c4.9,0,9.4-2,12.7-5.2v-21H195.3z"/>
	<path id="XMLID_133_" fill="#B2834F" d="M360.4,576.8v11.5h-95.2v-36.2h70.5C349.3,552.1,360.4,563.2,360.4,576.8z"/>
	<path id="XMLID_97_" fill="#A57444" d="M335,552.1c4.1,0,8.1,1,11.5,2.8v5.5c0,9.9-8.1,18-18,18c-4.9,0-9.4-2-12.7-5.2
		c-3.2,3.2-7.7,5.2-12.7,5.2c-4.9,0-9.4-2-12.7-5.2c-3.2,3.2-7.7,5.2-12.7,5.2c-4.9,0-9.4-2-12.7-5.2v-21H335z"/>
	<g id="XMLID_70_">
		<g id="XMLID_81_">
			<path id="XMLID_208_" fill="#FFFFFF" d="M201.8,566.7c-3.8,0-6.9-3.1-6.9-6.9V546c0-3.8,3.1-6.9,6.9-6.9s6.9,3.1,6.9,6.9v13.8
				C208.7,563.6,205.6,566.7,201.8,566.7z"/>
			<path id="XMLID_189_" fill="#6F7C82" d="M201.8,542.1c2.2,0,3.9,1.8,3.9,3.9v13.8c0,2.2-1.8,3.9-3.9,3.9s-3.9-1.8-3.9-3.9V546
				C197.9,543.9,199.6,542.1,201.8,542.1 M201.8,536.1c-5.5,0-9.9,4.4-9.9,9.9v13.8c0,5.5,4.4,9.9,9.9,9.9s9.9-4.4,9.9-9.9V546
				C211.7,540.6,207.3,536.1,201.8,536.1L201.8,536.1z"/>
		</g>
		<g id="XMLID_78_">
			<path id="XMLID_187_" fill="#FFFFFF" d="M227.1,566.7c-3.8,0-6.9-3.1-6.9-6.9V546c0-3.8,3.1-6.9,6.9-6.9s6.9,3.1,6.9,6.9v13.8
				C234,563.6,230.9,566.7,227.1,566.7z"/>
			<path id="XMLID_174_" fill="#6F7C82" d="M227.1,542.1c2.2,0,3.9,1.8,3.9,3.9v13.8c0,2.2-1.8,3.9-3.9,3.9h0
				c-2.2,0-3.9-1.8-3.9-3.9V546C223.2,543.9,225,542.1,227.1,542.1L227.1,542.1 M227.1,536.1c-5.5,0-9.9,4.4-9.9,9.9v13.8
				c0,5.5,4.4,9.9,9.9,9.9c5.5,0,9.9-4.4,9.9-9.9V546C237,540.6,232.6,536.1,227.1,536.1L227.1,536.1z"/>
		</g>
		<g id="XMLID_76_">
			<path id="XMLID_172_" fill="#FFFFFF" d="M252.5,566.7c-3.8,0-6.9-3.1-6.9-6.9V546c0-3.8,3.1-6.9,6.9-6.9s6.9,3.1,6.9,6.9v13.8
				C259.4,563.6,256.3,566.7,252.5,566.7z"/>
			<path id="XMLID_165_" fill="#6F7C82" d="M252.5,542.1c2.2,0,3.9,1.8,3.9,3.9v13.8c0,2.2-1.8,3.9-3.9,3.9h0
				c-2.2,0-3.9-1.8-3.9-3.9V546C248.5,543.9,250.3,542.1,252.5,542.1L252.5,542.1 M252.5,536.1c-5.5,0-9.9,4.4-9.9,9.9v13.8
				c0,5.5,4.4,9.9,9.9,9.9c5.5,0,9.9-4.4,9.9-9.9V546C262.4,540.6,257.9,536.1,252.5,536.1L252.5,536.1z"/>
		</g>
		<g id="XMLID_75_">
			<path id="XMLID_163_" fill="#FFFFFF" d="M277.8,566.7c-3.8,0-6.9-3.1-6.9-6.9V546c0-3.8,3.1-6.9,6.9-6.9s6.9,3.1,6.9,6.9v13.8
				C284.7,563.6,281.6,566.7,277.8,566.7z"/>
			<path id="XMLID_158_" fill="#6F7C82" d="M277.8,542.1c2.2,0,3.9,1.8,3.9,3.9v13.8c0,2.2-1.8,3.9-3.9,3.9h0
				c-2.2,0-3.9-1.8-3.9-3.9V546C273.9,543.9,275.6,542.1,277.8,542.1L277.8,542.1 M277.8,536.1c-5.5,0-9.9,4.4-9.9,9.9v13.8
				c0,5.5,4.4,9.9,9.9,9.9c5.5,0,9.9-4.4,9.9-9.9V546C287.7,540.6,283.3,536.1,277.8,536.1L277.8,536.1z"/>
		</g>
		<g id="XMLID_73_">
			<path id="XMLID_155_" fill="#FFFFFF" d="M303.1,566.7c-3.8,0-6.9-3.1-6.9-6.9V546c0-3.8,3.1-6.9,6.9-6.9s6.9,3.1,6.9,6.9v13.8
				C310,563.6,306.9,566.7,303.1,566.7z"/>
			<path id="XMLID_152_" fill="#6F7C82" d="M303.1,542.1c2.2,0,3.9,1.8,3.9,3.9v13.8c0,2.2-1.8,3.9-3.9,3.9h0
				c-2.2,0-3.9-1.8-3.9-3.9V546C299.2,543.9,301,542.1,303.1,542.1L303.1,542.1 M303.1,536.1c-5.5,0-9.9,4.4-9.9,9.9v13.8
				c0,5.5,4.4,9.9,9.9,9.9c5.5,0,9.9-4.4,9.9-9.9V546C313,540.6,308.6,536.1,303.1,536.1L303.1,536.1z"/>
		</g>
		<g id="XMLID_72_">
			<path id="XMLID_149_" fill="#FFFFFF" d="M328.5,566.7c-3.8,0-6.9-3.1-6.9-6.9V546c0-3.8,3.1-6.9,6.9-6.9s6.9,3.1,6.9,6.9v13.8
				C335.4,563.6,332.3,566.7,328.5,566.7z"/>
			<path id="XMLID_134_" fill="#6F7C82" d="M328.5,542.1c2.2,0,3.9,1.8,3.9,3.9v13.8c0,2.2-1.8,3.9-3.9,3.9s-3.9-1.8-3.9-3.9V546
				C324.5,543.9,326.3,542.1,328.5,542.1 M328.5,536.1c-5.5,0-9.9,4.4-9.9,9.9v13.8c0,5.5,4.4,9.9,9.9,9.9s9.9-4.4,9.9-9.9V546
				C338.4,540.6,333.9,536.1,328.5,536.1L328.5,536.1z"/>
		</g>
	</g>
	<g id="XMLID_83_">
		<rect id="XMLID_151_" x="169.9" y="614.1" fill="#88A0A8" width="190.5" height="5.6"/>
	</g>
	<g id="XMLID_84_">
		<rect id="XMLID_93_" x="169.9" y="636.6" fill="#88A0A8" width="190.5" height="5.6"/>
	</g>
	<g id="XMLID_85_">
		<rect id="XMLID_148_" x="169.9" y="659.2" fill="#88A0A8" width="190.5" height="5.6"/>
	</g>
	<g id="XMLID_90_">
		<rect id="XMLID_144_" x="169.9" y="681.7" fill="#88A0A8" width="190.5" height="5.6"/>
	</g>
	<g id="XMLID_91_">
		<rect id="XMLID_143_" x="169.9" y="704.2" fill="#88A0A8" width="190.5" height="5.6"/>
	</g>
	<g id="XMLID_92_">
		<rect id="XMLID_142_" x="169.9" y="726.7" fill="#88A0A8" width="190.5" height="5.6"/>
	</g>
	<g id="XMLID_102_">
		<rect id="XMLID_140_" x="169.9" y="749.2" fill="#88A0A8" width="190.5" height="5.6"/>
	</g>
	<g id="XMLID_127_">
		<rect id="XMLID_139_" x="169.9" y="771.7" fill="#88A0A8" width="190.5" height="5.6"/>
	</g>
	<g id="XMLID_128_">
		<line id="XMLID_16_" fill="none" x1="168.2" y1="797.1" x2="360.4" y2="797.1"/>
		<rect id="XMLID_145_" x="169.9" y="794.3" fill="#88A0A8" width="190.5" height="5.6"/>
	</g>
	<g id="XMLID_138_">
		<path id="XMLID_132_" fill="#88A0A8" d="M360.4,816.8v0.6c0,1.7-0.2,3.4-0.5,5H170.4c-0.3-1.6-0.5-3.3-0.5-5v-0.6H360.4z"/>
	</g>
	
		<line id="XMLID_71_" fill="none" stroke="#6F7C82" stroke-width="6" stroke-linecap="round" stroke-linejoin="round" stroke-miterlimit="10" x1="198.9" y1="593" x2="198.9" y2="843.5"/>
</g>
<g id="XMLID_74_">
	<g id="XMLID_100_">
		<g id="XMLID_225_">
			<path id="XMLID_446_" fill="#F9EEAC" d="M440,848.7c-1.7,0-3-1.3-3-3v-290c0-1.7,1.3-3,3-3h215.9c1.7,0,3,1.3,3,3v290
				c0,1.7-1.3,3-3,3H440z"/>
			<g id="XMLID_439_">
				<path id="XMLID_440_" fill="#6F7C82" d="M655.9,555.7v290H440v-290H655.9 M655.9,549.7H440c-3.3,0-6,2.7-6,6v290
					c0,3.3,2.7,6,6,6h215.9c3.3,0,6-2.7,6-6v-290C661.9,552.4,659.2,549.7,655.9,549.7L655.9,549.7z"/>
			</g>
		</g>
		<path id="XMLID_98_" fill="#EFDF92" d="M507.9,555.7v13.6c0,6.7,5.4,12.1,12.1,12.1h1l0.6,3.4c0.8,4.9,5,8.4,9.9,8.4h15.6v-37.5
			H507.9z"/>
		<rect id="XMLID_223_" x="547.1" y="555.7" fill="#EFDF92" width="108.8" height="290"/>
		<g id="XMLID_211_">
			
				<line id="XMLID_222_" fill="#FFFFFF" stroke="#6F7C82" stroke-width="6" stroke-linecap="round" stroke-linejoin="round" stroke-miterlimit="10" x1="562.9" y1="600.8" x2="634.2" y2="600.8"/>
			
				<line id="XMLID_221_" fill="#FFFFFF" stroke="#6F7C82" stroke-width="6" stroke-linecap="round" stroke-linejoin="round" stroke-miterlimit="10" x1="460.6" y1="620.5" x2="634.2" y2="620.5"/>
			
				<line id="XMLID_220_" fill="#FFFFFF" stroke="#6F7C82" stroke-width="6" stroke-linecap="round" stroke-linejoin="round" stroke-miterlimit="10" x1="460.6" y1="643" x2="634.2" y2="643"/>
			
				<line id="XMLID_219_" fill="#FFFFFF" stroke="#6F7C82" stroke-width="6" stroke-linecap="round" stroke-linejoin="round" stroke-miterlimit="10" x1="460.6" y1="665.5" x2="634.2" y2="665.5"/>
			
				<line id="XMLID_218_" fill="#FFFFFF" stroke="#6F7C82" stroke-width="6" stroke-linecap="round" stroke-linejoin="round" stroke-miterlimit="10" x1="460.6" y1="688" x2="634.2" y2="688"/>
			
				<line id="XMLID_217_" fill="#FFFFFF" stroke="#6F7C82" stroke-width="6" stroke-linecap="round" stroke-linejoin="round" stroke-miterlimit="10" x1="460.6" y1="710.6" x2="634.2" y2="710.6"/>
			
				<line id="XMLID_216_" fill="#FFFFFF" stroke="#6F7C82" stroke-width="6" stroke-linecap="round" stroke-linejoin="round" stroke-miterlimit="10" x1="460.6" y1="733.1" x2="634.2" y2="733.1"/>
			
				<line id="XMLID_215_" fill="#FFFFFF" stroke="#6F7C82" stroke-width="6" stroke-linecap="round" stroke-linejoin="round" stroke-miterlimit="10" x1="460.6" y1="755.6" x2="634.2" y2="755.6"/>
			
				<line id="XMLID_214_" fill="#FFFFFF" stroke="#6F7C82" stroke-width="6" stroke-linecap="round" stroke-linejoin="round" stroke-miterlimit="10" x1="460.6" y1="778.1" x2="634.2" y2="778.1"/>
			
				<line id="XMLID_213_" fill="#FFFFFF" stroke="#6F7C82" stroke-width="6" stroke-linecap="round" stroke-linejoin="round" stroke-miterlimit="10" x1="460.6" y1="800.6" x2="634.2" y2="800.6"/>
			
				<line id="XMLID_212_" fill="#FFFFFF" stroke="#6F7C82" stroke-width="6" stroke-linecap="round" stroke-linejoin="round" stroke-miterlimit="10" x1="460.6" y1="823.2" x2="634.2" y2="823.2"/>
		</g>
	</g>
	<g id="XMLID_105_">
		<g id="XMLID_104_">
			<path id="XMLID_397_" fill="#EACC4E" d="M521,569.2c-1.7,0-3-1.3-3-3v-10.5c0-1.7,1.3-3,3-3h52.2c1.7,0,3,1.3,3,3v10.5
				c0,1.7-1.3,3-3,3H521z"/>
			<path id="XMLID_268_" fill="#6F7C82" d="M573.2,555.7v10.5H521v-10.5H573.2 M573.2,549.7H521c-3.3,0-6,2.7-6,6v10.5
				c0,3.3,2.7,6,6,6h52.2c3.3,0,6-2.7,6-6v-10.5C579.2,552.4,576.5,549.7,573.2,549.7L573.2,549.7z"/>
		</g>
		<g id="XMLID_169_">
			<path id="XMLID_264_" fill="#F9E075" d="M532.6,582.5c-1.6,0-2.9-1.3-3-2.8l-3.8-73.7c0-0.8,0.3-1.6,0.8-2.2
				c0.6-0.6,1.4-0.9,2.2-0.9h36.6c0.8,0,1.6,0.3,2.2,0.9c0.6,0.6,0.9,1.4,0.8,2.2l-3.8,73.7c-0.1,1.6-1.4,2.8-3,2.8H532.6z"/>
			<path id="XMLID_258_" fill="#6F7C82" d="M565.4,505.7l-3.8,73.7h-29.1l-3.8-73.7H565.4 M565.4,499.7h-36.6
				c-1.6,0-3.2,0.7-4.3,1.9c-1.1,1.2-1.7,2.8-1.6,4.4l3.8,73.7c0.2,3.2,2.8,5.7,6,5.7h29.1c3.2,0,5.8-2.5,6-5.7l3.8-73.7
				c0.1-1.6-0.5-3.2-1.6-4.4C568.6,500.4,567,499.7,565.4,499.7L565.4,499.7z"/>
		</g>
	</g>
	<polygon id="XMLID_167_" fill="#EACC4B" points="565.4,505.7 561.6,579.5 547.1,579.5 547.1,505.7 	"/>
</g>
<g id="XMLID_114_">
	<g id="XMLID_109_">
		<g id="XMLID_192_">
			<g id="XMLID_113_">
				<g id="XMLID_247_">
					<path id="XMLID_545_" fill="#F9EEAC" d="M722.8,848.7c-1.7,0-3-1.3-3-3v-290c0-1.7,1.3-3,3-3h215.9c1.7,0,3,1.3,3,3v290
						c0,1.7-1.3,3-3,3H722.8z"/>
					<g id="XMLID_437_">
						<path id="XMLID_443_" fill="#6F7C82" d="M938.6,555.7v290H722.8v-290H938.6 M938.6,549.7H722.8c-3.3,0-6,2.7-6,6v290
							c0,3.3,2.7,6,6,6h215.9c3.3,0,6-2.7,6-6v-290C944.6,552.4,941.9,549.7,938.6,549.7L938.6,549.7z"/>
					</g>
				</g>
			</g>
			<rect id="XMLID_245_" x="833" y="555.7" fill="#EFDF92" width="105.6" height="290"/>
			<g id="XMLID_248_">
				<path id="XMLID_420_" fill="#93C0E2" d="M722.8,593.3c-1.7,0-3-1.3-3-3v-34.7c0-1.7,1.3-3,3-3h215.9c1.7,0,3,1.3,3,3v34.7
					c0,1.7-1.3,3-3,3H722.8z"/>
				<path id="XMLID_401_" fill="#6F7C82" d="M938.6,555.7v34.7H722.8v-34.7H938.6 M938.6,549.7H722.8c-3.3,0-6,2.7-6,6v34.7
					c0,3.3,2.7,6,6,6h215.9c3.3,0,6-2.7,6-6v-34.7C944.6,552.4,941.9,549.7,938.6,549.7L938.6,549.7z"/>
			</g>
			<path id="XMLID_94_" fill="#80B5D6" d="M838,580.3h-37.5c-11.6,0-21-9.4-21-21v-3.7H838V580.3z"/>
			<rect id="XMLID_244_" x="833" y="555.7" fill="#80B5D6" width="105.6" height="34.7"/>
			<g id="XMLID_193_">
				
					<line id="XMLID_203_" fill="#FFFFFF" stroke="#6F7C82" stroke-width="6" stroke-linecap="round" stroke-linejoin="round" stroke-miterlimit="10" x1="743.4" y1="620.5" x2="917" y2="620.5"/>
				
					<line id="XMLID_202_" fill="#FFFFFF" stroke="#6F7C82" stroke-width="6" stroke-linecap="round" stroke-linejoin="round" stroke-miterlimit="10" x1="743.4" y1="643" x2="917" y2="643"/>
				
					<line id="XMLID_201_" fill="#FFFFFF" stroke="#6F7C82" stroke-width="6" stroke-linecap="round" stroke-linejoin="round" stroke-miterlimit="10" x1="743.4" y1="665.5" x2="917" y2="665.5"/>
				
					<line id="XMLID_200_" fill="#FFFFFF" stroke="#6F7C82" stroke-width="6" stroke-linecap="round" stroke-linejoin="round" stroke-miterlimit="10" x1="743.4" y1="688" x2="917" y2="688"/>
				
					<line id="XMLID_199_" fill="#FFFFFF" stroke="#6F7C82" stroke-width="6" stroke-linecap="round" stroke-linejoin="round" stroke-miterlimit="10" x1="743.4" y1="710.6" x2="917" y2="710.6"/>
				
					<line id="XMLID_198_" fill="#FFFFFF" stroke="#6F7C82" stroke-width="6" stroke-linecap="round" stroke-linejoin="round" stroke-miterlimit="10" x1="743.4" y1="733.1" x2="917" y2="733.1"/>
				
					<line id="XMLID_197_" fill="#FFFFFF" stroke="#6F7C82" stroke-width="6" stroke-linecap="round" stroke-linejoin="round" stroke-miterlimit="10" x1="743.4" y1="755.6" x2="917" y2="755.6"/>
				
					<line id="XMLID_196_" fill="#FFFFFF" stroke="#6F7C82" stroke-width="6" stroke-linecap="round" stroke-linejoin="round" stroke-miterlimit="10" x1="743.4" y1="778.1" x2="917" y2="778.1"/>
				
					<line id="XMLID_195_" fill="#FFFFFF" stroke="#6F7C82" stroke-width="6" stroke-linecap="round" stroke-linejoin="round" stroke-miterlimit="10" x1="743.4" y1="800.6" x2="917" y2="800.6"/>
				
					<line id="XMLID_194_" fill="#FFFFFF" stroke="#6F7C82" stroke-width="6" stroke-linecap="round" stroke-linejoin="round" stroke-miterlimit="10" x1="743.4" y1="823.2" x2="917" y2="823.2"/>
			</g>
		</g>
	</g>
	<g id="XMLID_230_">
		<path id="XMLID_278_" fill="#E2E2E2" d="M802.2,571.3c-7.6,0-13.7-6.2-13.7-13.7v-4.2c0-7.6,6.2-13.8,13.7-13.8h61.6
			c7.6,0,13.7,6.2,13.7,13.8v4.2c0,7.6-6.2,13.7-13.7,13.7H802.2z"/>
		<path id="XMLID_270_" fill="#6F7C82" d="M863.8,542.6c5.9,0,10.7,4.8,10.7,10.8v4.2c0,5.9-4.8,10.7-10.7,10.7h-61.6
			c-5.9,0-10.7-4.8-10.7-10.7v-4.2c0-5.9,4.8-10.8,10.7-10.8H863.8 M863.8,536.6h-61.6c-9.2,0-16.7,7.5-16.7,16.8v4.2
			c0,9.2,7.5,16.7,16.7,16.7h61.6c9.2,0,16.7-7.5,16.7-16.7v-4.2C880.5,544.1,873,536.6,863.8,536.6L863.8,536.6z"/>
	</g>
	<path id="XMLID_191_" fill="#CCCCCC" d="M874.5,553.3v4.2c0,5.9-4.8,10.7-10.7,10.7H833v-25.7h30.8
		C869.7,542.6,874.5,547.4,874.5,553.3z"/>
	
		<line id="XMLID_135_" fill="#E2E2E2" stroke="#6F7C82" stroke-width="6" stroke-linecap="round" stroke-linejoin="round" stroke-miterlimit="10" x1="808.8" y1="550.9" x2="857.2" y2="550.9"/>
	<g id="XMLID_181_">
		<path id="XMLID_541_" fill="#E2E2E2" d="M821.5,551.1c-1,0-1.8-0.5-2.4-1.2c-0.6-0.8-0.7-1.8-0.5-2.7l2.7-8.8
			c1.2-4,0.3-8.3-2.3-11.2c-0.4-0.4-0.7-0.7-1.1-1c-6.2-5-9.4-12.8-8.7-20.7c1-11.3,9.9-20.3,21.1-21.6c1-0.1,1.8-0.1,2.7-0.1
			c13.2,0,23.9,10.7,23.9,23.9c0,7.1-3.1,13.8-8.6,18.3c-0.8,0.7-1.5,1.5-2.2,2.3c-2,2.7-2.5,6.5-1.4,10l2.7,8.8
			c0.3,0.9,0.1,1.9-0.5,2.7c-0.6,0.8-1.5,1.2-2.4,1.2H821.5z M833,497.9c-4.7,0-8.6,3.8-8.6,8.6s3.8,8.6,8.6,8.6s8.6-3.8,8.6-8.6
			S837.7,497.9,833,497.9z"/>
		<path id="XMLID_455_" fill="#6F7C82" d="M833,486.9c11.5,0,20.9,9.3,20.9,20.9c0,6.4-2.9,12.2-7.5,16c-1,0.9-1.9,1.8-2.7,2.9
			c-2.6,3.6-3.2,8.4-1.9,12.6l1,3.2l1.7,5.5h-23l1.7-5.5l1-3.2c1.5-4.9,0.5-10.3-3-14.1c-0.4-0.5-0.9-0.9-1.4-1.3
			c-5.1-4.2-8.2-10.8-7.6-18.1c0.9-9.8,8.7-17.8,18.4-18.8C831.4,486.9,832.2,486.9,833,486.9 M833,518.1c6.4,0,11.6-5.2,11.6-11.6
			c0-6.4-5.2-11.6-11.6-11.6c-6.4,0-11.6,5.2-11.6,11.6C821.4,512.9,826.6,518.1,833,518.1 M833,480.9
			C833,480.9,833,480.9,833,480.9c-1,0-2,0.1-3,0.2c-12.7,1.4-22.6,11.6-23.8,24.3c-0.8,8.9,2.9,17.6,9.7,23.2c0,0,0,0,0.1,0
			c0.2,0.2,0.5,0.4,0.8,0.8c1.9,2.1,2.5,5.2,1.6,8.2l-1,3.2l-1.7,5.5c-0.6,1.8-0.2,3.8,0.9,5.3c1.1,1.5,2.9,2.4,4.8,2.4h23
			c1.9,0,3.7-0.9,4.8-2.4c1.1-1.5,1.5-3.5,0.9-5.3l-1.7-5.5l-1-3.2c-0.8-2.6-0.4-5.4,1-7.4c0.5-0.7,1-1.3,1.6-1.8
			c6.2-5.1,9.7-12.7,9.7-20.7C859.9,493,847.8,480.9,833,480.9L833,480.9z M833,512.1c-3.1,0-5.6-2.5-5.6-5.6c0-3.1,2.5-5.6,5.6-5.6
			s5.6,2.5,5.6,5.6C838.6,509.6,836.1,512.1,833,512.1L833,512.1z"/>
	</g>
	<path id="XMLID_182_" fill="#CCCCCC" d="M853.9,507.8c0,6.4-2.9,12.2-7.5,16c-1,0.9-1.9,1.8-2.7,2.9c-2.6,3.6-3.2,8.4-1.9,12.6
		l1,3.2l1.7,5.5H833v-30.1c6.4,0,11.6-5.2,11.6-11.6c0-6.4-5.2-11.6-11.6-11.6v-8.1C844.5,486.9,853.9,496.2,853.9,507.8z"/>
</g>
<g id="XMLID_108_">
	<g id="XMLID_233_">
		<path id="XMLID_342_" fill="#FFFFFF" d="M437.8,460.6c-1.7,0-3-1.3-3-3v-290c0-1.7,1.3-3,3-3h173.8c18.7,0,33.9,15.2,33.9,33.9
			v228.1c0,18.7-15.2,33.9-33.9,33.9H437.8z"/>
		<path id="XMLID_284_" fill="#6F7C82" d="M611.5,167.6c17.1,0,30.9,13.8,30.9,30.9v228.1c0,17.1-13.8,30.9-30.9,30.9H437.8v-290
			H611.5 M611.5,161.6H437.8c-3.3,0-6,2.7-6,6v290c0,3.3,2.7,6,6,6h173.8c20.4,0,36.9-16.6,36.9-36.9V198.5
			C648.5,178.2,631.9,161.6,611.5,161.6L611.5,161.6z"/>
	</g>
	<path id="XMLID_226_" fill="#F2F2F2" d="M642.5,198.5v228.1c0,17.1-13.8,30.9-30.9,30.9h-65.3v-290h65.3
		C628.6,167.6,642.5,181.5,642.5,198.5z"/>
	<g id="XMLID_137_">
		
			<line id="XMLID_238_" fill="#FFFFFF" stroke="#6F7C82" stroke-width="6" stroke-linecap="round" stroke-linejoin="round" stroke-miterlimit="10" x1="483" y1="239.9" x2="613.7" y2="239.9"/>
		
			<line id="XMLID_237_" fill="#FFFFFF" stroke="#6F7C82" stroke-width="6" stroke-linecap="round" stroke-linejoin="round" stroke-miterlimit="10" x1="483" y1="262.4" x2="613.7" y2="262.4"/>
		
			<line id="XMLID_236_" fill="#FFFFFF" stroke="#6F7C82" stroke-width="6" stroke-linecap="round" stroke-linejoin="round" stroke-miterlimit="10" x1="483" y1="285" x2="613.7" y2="285"/>
		
			<line id="XMLID_229_" fill="#FFFFFF" stroke="#6F7C82" stroke-width="6" stroke-linecap="round" stroke-linejoin="round" stroke-miterlimit="10" x1="483" y1="307.5" x2="613.7" y2="307.5"/>
		
			<line id="XMLID_184_" fill="#FFFFFF" stroke="#6F7C82" stroke-width="6" stroke-linecap="round" stroke-linejoin="round" stroke-miterlimit="10" x1="483" y1="330" x2="613.7" y2="330"/>
		
			<line id="XMLID_183_" fill="#FFFFFF" stroke="#6F7C82" stroke-width="6" stroke-linecap="round" stroke-linejoin="round" stroke-miterlimit="10" x1="483" y1="352.5" x2="613.7" y2="352.5"/>
		
			<line id="XMLID_180_" fill="#FFFFFF" stroke="#6F7C82" stroke-width="6" stroke-linecap="round" stroke-linejoin="round" stroke-miterlimit="10" x1="483" y1="375" x2="613.7" y2="375"/>
		
			<line id="XMLID_175_" fill="#FFFFFF" stroke="#6F7C82" stroke-width="6" stroke-linecap="round" stroke-linejoin="round" stroke-miterlimit="10" x1="483" y1="397.6" x2="613.7" y2="397.6"/>
		
			<line id="XMLID_170_" fill="#FFFFFF" stroke="#6F7C82" stroke-width="6" stroke-linecap="round" stroke-linejoin="round" stroke-miterlimit="10" x1="483" y1="420.1" x2="613.7" y2="420.1"/>
		
			<line id="XMLID_168_" fill="#FFFFFF" stroke="#6F7C82" stroke-width="6" stroke-linecap="round" stroke-linejoin="round" stroke-miterlimit="10" x1="483" y1="217.4" x2="546.2" y2="217.4"/>
	</g>
	<g id="XMLID_243_">
		<path id="XMLID_273_" fill="#93C0E2" d="M437.8,460.6c-1.7,0-3-1.3-3-3v-290c0-1.7,1.3-3,3-3h22.1c1.7,0,3,1.3,3,3v290
			c0,1.7-1.3,3-3,3H437.8z"/>
		<path id="XMLID_260_" fill="#6F7C82" d="M459.8,167.6v290h-22.1v-290H459.8 M459.8,161.6h-22.1c-3.3,0-6,2.7-6,6v290
			c0,3.3,2.7,6,6,6h22.1c3.3,0,6-2.7,6-6v-290C465.8,164.3,463.1,161.6,459.8,161.6L459.8,161.6z"/>
	</g>
</g>
<g id="XMLID_110_">
	<g id="XMLID_340_">
		<path id="XMLID_426_" fill="#FFFFFF" d="M1022,462.9c-1.7,0-3-1.3-3-3v-290c0-1.7,1.3-3,3-3h253.4c1.7,0,3,1.3,3,3v290
			c0,1.7-1.3,3-3,3H1022z"/>
		<path id="XMLID_353_" fill="#6F7C82" d="M1275.4,169.9v290H1022v-290H1275.4 M1275.4,163.9H1022c-3.3,0-6,2.7-6,6v290
			c0,3.3,2.7,6,6,6h253.4c3.3,0,6-2.7,6-6v-290C1281.4,166.6,1278.7,163.9,1275.4,163.9L1275.4,163.9z"/>
	</g>
	<path id="XMLID_106_" fill="#F2F2F2" d="M1156.9,204.5h-49.5c-6.5,0-11.8-5.3-11.8-11.8v-22.8h61.3V204.5z"/>
	<rect id="XMLID_338_" x="1147.9" y="169.9" fill="#F2F2F2" width="127.5" height="290"/>
	<g id="XMLID_326_">
		
			<line id="XMLID_336_" fill="#FFFFFF" stroke="#6F7C82" stroke-width="6" stroke-linecap="round" stroke-linejoin="round" stroke-miterlimit="10" x1="1099.9" y1="221.6" x2="1196.5" y2="221.6"/>
		
			<line id="XMLID_335_" fill="#FFFFFF" stroke="#6F7C82" stroke-width="6" stroke-linecap="round" stroke-linejoin="round" stroke-miterlimit="10" x1="1059.5" y1="257.3" x2="1236.9" y2="257.3"/>
		
			<line id="XMLID_334_" fill="#FFFFFF" stroke="#6F7C82" stroke-width="6" stroke-linecap="round" stroke-linejoin="round" stroke-miterlimit="10" x1="1059.5" y1="279.8" x2="1236.9" y2="279.8"/>
		
			<line id="XMLID_333_" fill="#FFFFFF" stroke="#6F7C82" stroke-width="6" stroke-linecap="round" stroke-linejoin="round" stroke-miterlimit="10" x1="1059.5" y1="302.3" x2="1236.9" y2="302.3"/>
		
			<line id="XMLID_332_" fill="#FFFFFF" stroke="#6F7C82" stroke-width="6" stroke-linecap="round" stroke-linejoin="round" stroke-miterlimit="10" x1="1059.5" y1="324.8" x2="1236.9" y2="324.8"/>
		
			<line id="XMLID_331_" fill="#FFFFFF" stroke="#6F7C82" stroke-width="6" stroke-linecap="round" stroke-linejoin="round" stroke-miterlimit="10" x1="1059.5" y1="347.3" x2="1236.9" y2="347.3"/>
		
			<line id="XMLID_330_" fill="#FFFFFF" stroke="#6F7C82" stroke-width="6" stroke-linecap="round" stroke-linejoin="round" stroke-miterlimit="10" x1="1059.5" y1="369.9" x2="1236.9" y2="369.9"/>
		
			<line id="XMLID_329_" fill="#FFFFFF" stroke="#6F7C82" stroke-width="6" stroke-linecap="round" stroke-linejoin="round" stroke-miterlimit="10" x1="1059.5" y1="392.4" x2="1236.9" y2="392.4"/>
		
			<line id="XMLID_328_" fill="#FFFFFF" stroke="#6F7C82" stroke-width="6" stroke-linecap="round" stroke-linejoin="round" stroke-miterlimit="10" x1="1059.5" y1="414.9" x2="1236.9" y2="414.9"/>
	</g>
	<g id="XMLID_103_">
		<g id="XMLID_161_">
			<path id="XMLID_345_" fill="#848484" d="M1170,192.6c-1.7,0-3-1.3-3-3v-6.8h-9v6.8c0,1.7-1.3,3-3,3h-13.2c-1.7,0-3-1.3-3-3v-6.8
				h-9v6.8c0,1.7-1.3,3-3,3H1110c-1.7,0-3-1.3-3-3v-39.4c0-1.7,1.3-3,3-3h76.9c1.7,0,3,1.3,3,3v39.4c0,1.7-1.3,3-3,3H1170z"/>
			<path id="XMLID_286_" fill="#6F7C82" d="M1186.9,150.2v39.4H1170v-9.8h-15v9.8h-13.2v-9.8h-15v9.8H1110v-39.4H1186.9
				 M1186.9,144.2H1110c-3.3,0-6,2.7-6,6v39.4c0,3.3,2.7,6,6,6h16.9c3.3,0,6-2.7,6-6v-3.8h3v3.8c0,3.3,2.7,6,6,6h13.2
				c3.3,0,6-2.7,6-6v-3.8h3v3.8c0,3.3,2.7,6,6,6h16.9c3.3,0,6-2.7,6-6v-39.4C1192.9,146.9,1190.2,144.2,1186.9,144.2L1186.9,144.2z"
				/>
		</g>
		
			<path id="XMLID_99_" fill="none" stroke="#6F7C82" stroke-width="6" stroke-linecap="round" stroke-linejoin="round" stroke-miterlimit="10" d="
			M1157.8,166.3v-36.8c3.6-2.8,5.9-7.2,5.9-12c0-8.4-6.8-15.3-15.3-15.3s-15.3,6.8-15.3,15.3c0,4.9,2.3,9.2,5.9,12v36.8"/>
	</g>
</g>
<g id="XMLID_112_">
	<g id="XMLID_421_">
		<path id="XMLID_532_" fill="#F9EEAC" d="M1046,784.4c-1.7,0-3-1.3-3-3V581.7c0-1.7,1.3-3,3-3h200.7c1.7,0,3,1.3,3,3v199.8
			c0,1.7-1.3,3-3,3H1046z"/>
		<g id="XMLID_506_">
			<path id="XMLID_516_" fill="#6F7C82" d="M1246.7,581.7v199.8H1046V581.7H1246.7 M1246.7,575.7H1046c-3.3,0-6,2.7-6,6v199.8
				c0,3.3,2.7,6,6,6h200.7c3.3,0,6-2.7,6-6V581.7C1252.7,578.3,1250,575.7,1246.7,575.7L1246.7,575.7z"/>
		</g>
	</g>
	<rect id="XMLID_379_" x="1145.2" y="581.7" fill="#EFDF92" width="101.5" height="199.8"/>
	<g id="XMLID_415_">
		<path id="XMLID_511_" fill="#EFDF92" d="M1230.7,581.7v141.6c0,6.2-5,11.2-11.2,11.2H1046V581.7H1230.7z"/>
	</g>
	<g id="XMLID_424_">
		<path id="XMLID_454_" fill="#FFAEDC" d="M1014,720.6c-1.7,0-3-1.3-3-3v-168c0-1.7,1.3-3,3-3h200.7c1.7,0,3,1.3,3,3v168
			c0,1.7-1.3,3-3,3H1014z"/>
		<g id="XMLID_450_">
			<path id="XMLID_451_" fill="#6F7C82" d="M1214.7,549.6v168H1014v-168H1214.7 M1214.7,543.6H1014c-3.3,0-6,2.7-6,6v168
				c0,3.3,2.7,6,6,6h200.7c3.3,0,6-2.7,6-6v-168C1220.7,546.3,1218,543.6,1214.7,543.6L1214.7,543.6z"/>
		</g>
	</g>
	<rect id="XMLID_391_" x="1113.9" y="549.6" fill="#F98ACF" width="100.8" height="168"/>
	<g id="XMLID_296_">
		<g id="XMLID_111_">
			<g id="XMLID_422_">
				<path id="XMLID_433_" fill="#6F7C82" d="M1080,590.4c0.4-4.1-0.1-9.7-3.3-12.7c-2.5-2.4-5.9-1.7-8,0.9
					c-2.8,3.4-2.6,8.4-1.6,12.4c0.7,2.7,1.8,5.2,2.9,7.8c0.7,1.6,1.4,3.2,2,4.9c0.2,0.5,0.3,1.1,0.5,1.6c1.3,2.2,0.7,3.4-1.8,3.7
					c-1.3-2.9-5.7-0.4-4.3,2.5c1.3,2.9,4.2,4.7,7.5,3.6c3.9-1.3,4.4-5.3,3.9-8.8c-0.7-4.8-3.1-8.9-4.8-13.3
					c-0.6-1.7-3.2-9.5-0.7-10.8c3.2-1.6,3,6.5,2.8,8.2C1074.7,593.6,1079.7,593.6,1080,590.4L1080,590.4z"/>
			</g>
		</g>
		<g id="XMLID_206_">
			<g id="XMLID_414_">
				<path id="XMLID_419_" fill="#6F7C82" d="M1085.3,587c0.2,7.9,0.5,15.7,1,23.6c0.2,3.2,5.2,3.2,5,0c-0.5-7.8-0.9-15.7-1-23.6
					C1090.2,583.8,1085.2,583.8,1085.3,587L1085.3,587z"/>
			</g>
		</g>
		<g id="XMLID_224_">
			<g id="XMLID_408_">
				<path id="XMLID_412_" fill="#6F7C82" d="M1082.2,593.9c6-2.1,11.9-4.1,17.9-6.2c3-1.1,1.7-5.9-1.3-4.8c-6,2.1-11.9,4.1-17.9,6.2
					C1077.8,590.2,1079.1,595,1082.2,593.9L1082.2,593.9z"/>
			</g>
		</g>
		<g id="XMLID_257_">
			<g id="XMLID_402_">
				<path id="XMLID_406_" fill="#6F7C82" d="M1097.6,590.6c-0.1,5.5-0.3,11-0.7,16.4c-0.2,3.2,4.8,3.2,5,0c0.4-5.5,0.6-11,0.7-16.4
					C1102.6,587.4,1097.6,587.4,1097.6,590.6L1097.6,590.6z"/>
			</g>
		</g>
		<g id="XMLID_259_">
			<g id="XMLID_395_">
				<path id="XMLID_400_" fill="#6F7C82" d="M1118.6,578.2c-12.1-9.1-11.4,12.7-9.4,19.1c1.2,3.9,3.2,9.5,7.8,10.3
					c5.9,1,8.3-5.1,9-9.7c0.4-3.1-4.4-4.5-4.8-1.3c-0.1,1-0.3,2-0.5,2.9c-2.3,3-3.8,3.4-4.7,1.2c-1.5-1.2-2.2-5.2-2.6-7.1
					c-0.5-2.4-2.2-14.8,2.7-11C1118.7,584.4,1121.1,580.1,1118.6,578.2L1118.6,578.2z"/>
			</g>
		</g>
		<g id="XMLID_275_">
			<g id="XMLID_388_">
				<path id="XMLID_393_" fill="#6F7C82" d="M1122.1,574.8c2.6,8.4,4.6,16.8,6,25.5c0.5,3.2,5.3,1.8,4.8-1.3
					c-1.4-8.6-3.4-17.1-6-25.5C1125.9,570.4,1121.1,571.7,1122.1,574.8L1122.1,574.8z"/>
			</g>
		</g>
		<g id="XMLID_276_">
			<g id="XMLID_381_">
				<path id="XMLID_386_" fill="#6F7C82" d="M1131.9,573.5c-1.8,3.5-4.3,6.2-6.4,9.4c-0.9,1.5-1.3,3-0.1,4.5c1.5,2,5.7,3.4,7.9,4.6
					c3.6,2,7.3,3.9,10.9,5.9c2.8,1.5,5.4-2.8,2.5-4.3c-4.8-2.6-9.6-5.2-14.4-7.8c-2.5-1.4-2-1-0.3-3.2c1.6-2.1,2.9-4.3,4.1-6.7
					C1137.7,573.2,1133.4,570.7,1131.9,573.5L1131.9,573.5z"/>
			</g>
		</g>
		<g id="XMLID_290_">
			<g id="XMLID_374_">
				<path id="XMLID_378_" fill="#6F7C82" d="M1150.6,569.8c-1.2,4.5-2.3,9.1-3.2,13.7c-0.6,3.1,4.2,4.5,4.8,1.3
					c0.9-4.6,2-9.2,3.2-13.7C1156.2,568,1151.4,566.6,1150.6,569.8L1150.6,569.8z"/>
			</g>
		</g>
		<g id="XMLID_288_">
			<g id="XMLID_366_">
				<path id="XMLID_371_" fill="#6F7C82" d="M1156.9,597.3c-1.6-4.8-2.6-12.7-6.7-15.9c-2.6-2-5.6-3.7-8.4-5.6
					c-2.7-1.8-5.2,2.5-2.5,4.3c2.4,1.6,5.1,3.1,7.4,4.9c3.3,2.6,4,9.4,5.4,13.6C1153.1,601.7,1157.9,600.4,1156.9,597.3
					L1156.9,597.3z"/>
			</g>
		</g>
		<g id="XMLID_283_">
			<g id="XMLID_297_">
				<g id="XMLID_359_">
					<path id="XMLID_364_" fill="#6F7C82" d="M1096.5,649.9c-2.2-7.8-4.1-15.7-5.8-23.7c-1.2,0.9-2.4,1.9-3.7,2.8
						c6.3,3.6,9.1,11,14.7,15.5c1.7,1.3,5.2,0.2,4.2-2.4c-3.5-8.6-2.9-18.1-5.9-26.8c-1-3-5.9-1.7-4.8,1.3c3,8.7,2.5,18.2,5.9,26.8
						c1.4-0.8,2.8-1.6,4.2-2.4c-6-4.8-8.9-12.3-15.7-16.2c-2-1.1-4.1,0.7-3.7,2.8c1.7,8,3.6,15.9,5.8,23.7
						C1092.5,654.4,1097.3,653.1,1096.5,649.9L1096.5,649.9z"/>
				</g>
			</g>
			<g id="XMLID_299_">
				<g id="XMLID_351_">
					<path id="XMLID_356_" fill="#6F7C82" d="M1105.3,617.4c-2.2,6.2-1.7,14.5,1.2,20.4c2.1,4.3,8.3,11.4,13.7,8.1
						c4.7-2.9,3.9-11.6,2.8-16.1c-1.6-6.5-5.6-11.9-11.1-15.5c-2.7-1.8-5.2,2.6-2.5,4.3c3.2,2.1,5.8,4.9,7.4,8.4
						c1.4,2.9,3.5,9.4,1.6,12.5c-3.2,5.2-8-4.9-8.6-7.5c-1-4.2-1.1-9.3,0.3-13.4C1111.2,615.6,1106.3,614.3,1105.3,617.4
						L1105.3,617.4z"/>
				</g>
			</g>
			<g id="XMLID_301_">
				<g id="XMLID_324_">
					<path id="XMLID_348_" fill="#6F7C82" d="M1124.3,614.3c1.9,9.1,3.7,18.2,5.6,27.2c0.6,3.2,5.5,1.8,4.8-1.3
						c-1.9-9.1-3.7-18.2-5.6-27.2C1128.4,609.9,1123.6,611.2,1124.3,614.3L1124.3,614.3z"/>
				</g>
			</g>
			<g id="XMLID_325_">
				<g id="XMLID_318_">
					<path id="XMLID_322_" fill="#6F7C82" d="M1118.1,617.2c5.5-1.3,10.8-2.8,16.2-4.5c3-1,1.7-5.8-1.3-4.8
						c-5.3,1.8-10.7,3.3-16.2,4.5C1113.6,613.1,1115,617.9,1118.1,617.2L1118.1,617.2z"/>
				</g>
			</g>
			<g id="XMLID_350_">
				<g id="XMLID_312_">
					<path id="XMLID_316_" fill="#6F7C82" d="M1138,618.3c3-1.1,5.9-2.4,8.7-3.9c2.8-1.5,0.3-5.8-2.5-4.3c-2.4,1.3-4.9,2.4-7.5,3.4
						C1133.7,614.6,1135,619.5,1138,618.3L1138,618.3z"/>
				</g>
			</g>
			<g id="XMLID_357_">
				<g id="XMLID_306_">
					<path id="XMLID_310_" fill="#6F7C82" d="M1134.4,619c1.8,3.9,3.2,8,4.3,12.2c0.7,2.6,0.6,6.4,2.4,8.5c3.8,4.5,8.3-2.7,11.9-3.4
						c3.2-0.6,1.8-5.4-1.3-4.8c-1.9,0.3-3.3,1.2-4.8,2.4c-0.3,0.3-2.7,2.4-2.9,2.3c1.6,0.8,0.3-3.2,0.3-3.3
						c-1.2-5.6-3.2-11-5.5-16.3C1137.4,613.5,1133.1,616.1,1134.4,619L1134.4,619z"/>
				</g>
			</g>
			<g id="XMLID_370_">
				<g id="XMLID_298_">
					<path id="XMLID_304_" fill="#6F7C82" d="M1143,631.3c2.3-1.4,4.6-2.7,7-4.1c2.8-1.6,0.3-5.9-2.5-4.3c-2.3,1.4-4.6,2.7-7,4.1
						C1137.7,628.6,1140.2,633,1143,631.3L1143,631.3z"/>
				</g>
			</g>
		</g>
	</g>
	<g id="XMLID_425_">
		<path id="XMLID_295_" fill="#F98ACF" d="M1014,720.6c-4.2,0-7.8-1.6-10.8-4.6c-9.7-9.9-9.4-33.2-9.4-34.2c0-1.6,1.4-2.9,3-2.9h192
			c1.7,0,3,1.3,3,3c0,30.1,22.2,32.6,23.2,32.7c1.6,0.2,2.8,1.5,2.7,3.1c-0.1,1.6-1.4,2.9-3,2.9H1014z"/>
		<path id="XMLID_177_" fill="#6F7C82" d="M1188.8,681.9c0,33.2,25.9,35.7,25.9,35.7H1014c-17.9,0-17.2-35.7-17.2-35.7H1188.8
			 M1188.8,675.9h-192c-3.3,0-5.9,2.6-6,5.9c-0.1,2.6-0.2,25.7,10.2,36.3c3.5,3.6,8,5.5,12.9,5.5h200.7c3.2,0,5.9-2.5,6-5.7
			c0.1-3.2-2.2-6-5.5-6.2c0,0-5.3-0.7-10.4-4.6c-6.7-5.2-10.1-13.7-10.1-25.2C1194.8,678.6,1192.1,675.9,1188.8,675.9L1188.8,675.9z
			"/>
	</g>
	<path id="XMLID_385_" fill="#EF73C6" d="M1214.7,717.6H1093v-35.7h95.9C1188.8,715.1,1214.7,717.6,1214.7,717.6z"/>
</g>
<g id="XMLID_239_">
	<g id="XMLID_228_">
		<g id="XMLID_458_">
			<path id="XMLID_523_" fill="#FFFFFF" d="M731,460.6c-1.7,0-3-1.3-3-3v-290c0-1.7,1.3-3,3-3h232.9c1.7,0,3,1.3,3,3v290
				c0,1.7-1.3,3-3,3H731z"/>
			<path id="XMLID_520_" fill="#6F7C82" d="M963.8,167.6v290H731v-290H963.8 M963.8,161.6H731c-3.3,0-6,2.7-6,6v290c0,3.3,2.7,6,6,6
				h232.9c3.3,0,6-2.7,6-6v-290C969.8,164.3,967.1,161.6,963.8,161.6L963.8,161.6z"/>
		</g>
		<rect id="XMLID_457_" x="858.2" y="167.6" fill="#F2F2F2" width="105.6" height="290"/>
		<g id="XMLID_252_">
			
				<line id="XMLID_456_" fill="#FFFFFF" stroke="#6F7C82" stroke-width="6" stroke-linecap="round" stroke-linejoin="round" stroke-miterlimit="10" x1="775.2" y1="239.9" x2="940.5" y2="239.9"/>
			
				<line id="XMLID_445_" fill="#FFFFFF" stroke="#6F7C82" stroke-width="6" stroke-linecap="round" stroke-linejoin="round" stroke-miterlimit="10" x1="775.2" y1="262.4" x2="940.5" y2="262.4"/>
			
				<line id="XMLID_444_" fill="#FFFFFF" stroke="#6F7C82" stroke-width="6" stroke-linecap="round" stroke-linejoin="round" stroke-miterlimit="10" x1="775.2" y1="285" x2="940.5" y2="285"/>
			
				<line id="XMLID_291_" fill="#FFFFFF" stroke="#6F7C82" stroke-width="6" stroke-linecap="round" stroke-linejoin="round" stroke-miterlimit="10" x1="775.2" y1="307.5" x2="940.5" y2="307.5"/>
			
				<line id="XMLID_282_" fill="#FFFFFF" stroke="#6F7C82" stroke-width="6" stroke-linecap="round" stroke-linejoin="round" stroke-miterlimit="10" x1="775.2" y1="330" x2="940.5" y2="330"/>
			
				<line id="XMLID_281_" fill="#FFFFFF" stroke="#6F7C82" stroke-width="6" stroke-linecap="round" stroke-linejoin="round" stroke-miterlimit="10" x1="775.2" y1="352.5" x2="940.5" y2="352.5"/>
			
				<line id="XMLID_280_" fill="#FFFFFF" stroke="#6F7C82" stroke-width="6" stroke-linecap="round" stroke-linejoin="round" stroke-miterlimit="10" x1="775.2" y1="375" x2="940.5" y2="375"/>
			
				<line id="XMLID_279_" fill="#FFFFFF" stroke="#6F7C82" stroke-width="6" stroke-linecap="round" stroke-linejoin="round" stroke-miterlimit="10" x1="775.2" y1="397.6" x2="940.5" y2="397.6"/>
			
				<line id="XMLID_263_" fill="#FFFFFF" stroke="#6F7C82" stroke-width="6" stroke-linecap="round" stroke-linejoin="round" stroke-miterlimit="10" x1="775.2" y1="420.1" x2="940.5" y2="420.1"/>
			
				<line id="XMLID_253_" fill="#FFFFFF" stroke="#6F7C82" stroke-width="6" stroke-linecap="round" stroke-linejoin="round" stroke-miterlimit="10" x1="775.2" y1="217.4" x2="940.5" y2="217.4"/>
		</g>
		<g id="XMLID_234_">
			<path id="XMLID_530_" fill="#848484" d="M731,460.6c-1.7,0-3-1.3-3-3v-290c0-1.7,1.3-3,3-3H753c1.7,0,3,1.3,3,3v290
				c0,1.7-1.3,3-3,3H731z"/>
			<g id="XMLID_525_">
				<path id="XMLID_526_" fill="#6F7C82" d="M753,167.6v290H731v-290H753 M753,161.6H731c-3.3,0-6,2.7-6,6v290c0,3.3,2.7,6,6,6H753
					c3.3,0,6-2.7,6-6v-290C759,164.3,756.3,161.6,753,161.6L753,161.6z"/>
			</g>
		</g>
	</g>
	<g id="XMLID_468_">
		<g id="XMLID_467_">
			<path id="XMLID_518_" fill="#FFFFFF" d="M721.7,190.5c-3.8,0-6.9-3.1-6.9-6.9c0-3.8,3.1-6.9,6.9-6.9h18.5c3.8,0,6.9,3.1,6.9,6.9
				c0,3.8-3.1,6.9-6.9,6.9H721.7z"/>
			<path id="XMLID_514_" fill="#6F7C82" d="M740.2,179.7c2.2,0,3.9,1.8,3.9,3.9v0c0,2.2-1.8,3.9-3.9,3.9h-18.5
				c-2.2,0-3.9-1.8-3.9-3.9v0c0-2.2,1.8-3.9,3.9-3.9H740.2 M740.2,173.7h-18.5c-5.5,0-9.9,4.4-9.9,9.9c0,5.5,4.4,9.9,9.9,9.9h18.5
				c5.5,0,9.9-4.4,9.9-9.9C750.1,178.2,745.7,173.7,740.2,173.7L740.2,173.7z"/>
		</g>
		<g id="XMLID_465_">
			<path id="XMLID_512_" fill="#FFFFFF" d="M721.7,215.9c-3.8,0-6.9-3.1-6.9-6.9c0-3.8,3.1-6.9,6.9-6.9h18.5c3.8,0,6.9,3.1,6.9,6.9
				c0,3.8-3.1,6.9-6.9,6.9H721.7z"/>
			<path id="XMLID_508_" fill="#6F7C82" d="M740.2,205.1c2.2,0,3.9,1.8,3.9,3.9v0c0,2.2-1.8,3.9-3.9,3.9h-18.5
				c-2.2,0-3.9-1.8-3.9-3.9v0c0-2.2,1.8-3.9,3.9-3.9H740.2 M740.2,199.1h-18.5c-5.5,0-9.9,4.4-9.9,9.9c0,5.5,4.4,9.9,9.9,9.9h18.5
				c5.5,0,9.9-4.4,9.9-9.9C750.1,203.5,745.7,199.1,740.2,199.1L740.2,199.1z"/>
		</g>
		<g id="XMLID_464_">
			<path id="XMLID_505_" fill="#FFFFFF" d="M721.7,241.2c-3.8,0-6.9-3.1-6.9-6.9c0-3.8,3.1-6.9,6.9-6.9h18.5c3.8,0,6.9,3.1,6.9,6.9
				c0,3.8-3.1,6.9-6.9,6.9H721.7z"/>
			<path id="XMLID_502_" fill="#6F7C82" d="M740.2,230.4c2.2,0,3.9,1.8,3.9,3.9s-1.8,3.9-3.9,3.9h-18.5c-2.2,0-3.9-1.8-3.9-3.9
				s1.8-3.9,3.9-3.9H740.2 M740.2,224.4h-18.5c-5.5,0-9.9,4.4-9.9,9.9s4.4,9.9,9.9,9.9h18.5c5.5,0,9.9-4.4,9.9-9.9
				S745.7,224.4,740.2,224.4L740.2,224.4z"/>
		</g>
		<g id="XMLID_463_">
			<path id="XMLID_500_" fill="#FFFFFF" d="M721.7,266.5c-3.8,0-6.9-3.1-6.9-6.9c0-3.8,3.1-6.9,6.9-6.9h18.5c3.8,0,6.9,3.1,6.9,6.9
				c0,3.8-3.1,6.9-6.9,6.9H721.7z"/>
			<path id="XMLID_497_" fill="#6F7C82" d="M740.2,255.7c2.2,0,3.9,1.8,3.9,3.9v0c0,2.2-1.8,3.9-3.9,3.9h-18.5
				c-2.2,0-3.9-1.8-3.9-3.9v0c0-2.2,1.8-3.9,3.9-3.9H740.2 M740.2,249.7h-18.5c-5.5,0-9.9,4.4-9.9,9.9s4.4,9.9,9.9,9.9h18.5
				c5.5,0,9.9-4.4,9.9-9.9C750.1,254.2,745.7,249.7,740.2,249.7L740.2,249.7z"/>
		</g>
		<g id="XMLID_462_">
			<path id="XMLID_495_" fill="#FFFFFF" d="M721.7,291.9c-3.8,0-6.9-3.1-6.9-6.9c0-3.8,3.1-6.9,6.9-6.9h18.5c3.8,0,6.9,3.1,6.9,6.9
				c0,3.8-3.1,6.9-6.9,6.9H721.7z"/>
			<path id="XMLID_492_" fill="#6F7C82" d="M740.2,281.1c2.2,0,3.9,1.8,3.9,3.9s-1.8,3.9-3.9,3.9h-18.5c-2.2,0-3.9-1.8-3.9-3.9
				s1.8-3.9,3.9-3.9H740.2 M740.2,275.1h-18.5c-5.5,0-9.9,4.4-9.9,9.9s4.4,9.9,9.9,9.9h18.5c5.5,0,9.9-4.4,9.9-9.9
				S745.7,275.1,740.2,275.1L740.2,275.1z"/>
		</g>
		<g id="XMLID_461_">
			<path id="XMLID_490_" fill="#FFFFFF" d="M721.7,317.2c-3.8,0-6.9-3.1-6.9-6.9c0-3.8,3.1-6.9,6.9-6.9h18.5c3.8,0,6.9,3.1,6.9,6.9
				c0,3.8-3.1,6.9-6.9,6.9H721.7z"/>
			<path id="XMLID_487_" fill="#6F7C82" d="M740.2,306.4c2.2,0,3.9,1.8,3.9,3.9s-1.8,3.9-3.9,3.9h-18.5c-2.2,0-3.9-1.8-3.9-3.9
				s1.8-3.9,3.9-3.9H740.2 M740.2,300.4h-18.5c-5.5,0-9.9,4.4-9.9,9.9s4.4,9.9,9.9,9.9h18.5c5.5,0,9.9-4.4,9.9-9.9
				S745.7,300.4,740.2,300.4L740.2,300.4z"/>
		</g>
		<g id="XMLID_460_">
			<path id="XMLID_485_" fill="#FFFFFF" d="M721.7,342.5c-3.8,0-6.9-3.1-6.9-6.9c0-3.8,3.1-6.9,6.9-6.9h18.5c3.8,0,6.9,3.1,6.9,6.9
				c0,3.8-3.1,6.9-6.9,6.9H721.7z"/>
			<path id="XMLID_482_" fill="#6F7C82" d="M740.2,331.7c2.2,0,3.9,1.8,3.9,3.9s-1.8,3.9-3.9,3.9h-18.5c-2.2,0-3.9-1.8-3.9-3.9
				s1.8-3.9,3.9-3.9H740.2 M740.2,325.7h-18.5c-5.5,0-9.9,4.4-9.9,9.9s4.4,9.9,9.9,9.9h18.5c5.5,0,9.9-4.4,9.9-9.9
				S745.7,325.7,740.2,325.7L740.2,325.7z"/>
		</g>
		<g id="XMLID_459_">
			<path id="XMLID_480_" fill="#FFFFFF" d="M721.7,367.9c-3.8,0-6.9-3.1-6.9-6.9c0-3.8,3.1-6.9,6.9-6.9h18.5c3.8,0,6.9,3.1,6.9,6.9
				c0,3.8-3.1,6.9-6.9,6.9H721.7z"/>
			<path id="XMLID_477_" fill="#6F7C82" d="M740.2,357.1c2.2,0,3.9,1.8,3.9,3.9s-1.8,3.9-3.9,3.9h-18.5c-2.2,0-3.9-1.8-3.9-3.9
				s1.8-3.9,3.9-3.9H740.2 M740.2,351.1h-18.5c-5.5,0-9.9,4.4-9.9,9.9s4.4,9.9,9.9,9.9h18.5c5.5,0,9.9-4.4,9.9-9.9
				S745.7,351.1,740.2,351.1L740.2,351.1z"/>
		</g>
		<g id="XMLID_204_">
			<path id="XMLID_475_" fill="#FFFFFF" d="M721.7,393.2c-3.8,0-6.9-3.1-6.9-6.9c0-3.8,3.1-6.9,6.9-6.9h18.5c3.8,0,6.9,3.1,6.9,6.9
				c0,3.8-3.1,6.9-6.9,6.9H721.7z"/>
			<path id="XMLID_472_" fill="#6F7C82" d="M740.2,382.4c2.2,0,3.9,1.8,3.9,3.9s-1.8,3.9-3.9,3.9h-18.5c-2.2,0-3.9-1.8-3.9-3.9
				s1.8-3.9,3.9-3.9H740.2 M740.2,376.4h-18.5c-5.5,0-9.9,4.4-9.9,9.9s4.4,9.9,9.9,9.9h18.5c5.5,0,9.9-4.4,9.9-9.9
				S745.7,376.4,740.2,376.4L740.2,376.4z"/>
		</g>
	</g>
	<g id="XMLID_240_">
		<g id="XMLID_569_">
			<path id="XMLID_470_" fill="#FFFFFF" d="M721.7,419c-3.8,0-6.9-3.1-6.9-6.9c0-3.8,3.1-6.9,6.9-6.9h18.5c3.8,0,6.9,3.1,6.9,6.9
				c0,3.8-3.1,6.9-6.9,6.9H721.7z"/>
			<path id="XMLID_430_" fill="#6F7C82" d="M740.2,408.2c2.2,0,3.9,1.8,3.9,3.9v0c0,2.2-1.8,3.9-3.9,3.9h-18.5
				c-2.2,0-3.9-1.8-3.9-3.9v0c0-2.2,1.8-3.9,3.9-3.9H740.2 M740.2,402.2h-18.5c-5.5,0-9.9,4.4-9.9,9.9s4.4,9.9,9.9,9.9h18.5
				c5.5,0,9.9-4.4,9.9-9.9C750.1,406.6,745.7,402.2,740.2,402.2L740.2,402.2z"/>
		</g>
		<g id="XMLID_563_">
			<path id="XMLID_427_" fill="#FFFFFF" d="M721.7,444.3c-3.8,0-6.9-3.1-6.9-6.9c0-3.8,3.1-6.9,6.9-6.9h18.5c3.8,0,6.9,3.1,6.9,6.9
				c0,3.8-3.1,6.9-6.9,6.9H721.7z"/>
			<path id="XMLID_285_" fill="#6F7C82" d="M740.2,433.5c2.2,0,3.9,1.8,3.9,3.9v0c0,2.2-1.8,3.9-3.9,3.9h-18.5
				c-2.2,0-3.9-1.8-3.9-3.9v0c0-2.2,1.8-3.9,3.9-3.9H740.2 M740.2,427.5h-18.5c-5.5,0-9.9,4.4-9.9,9.9s4.4,9.9,9.9,9.9h18.5
				c5.5,0,9.9-4.4,9.9-9.9C750.1,432,745.7,427.5,740.2,427.5L740.2,427.5z"/>
		</g>
	</g>
</g>
</svg>
