<?xml version="1.0" encoding="utf-8"?>
<svg id="master-artboard" viewBox="0 0 700 490" version="1.1" xmlns="http://www.w3.org/2000/svg" x="0px" y="0px" width="700px" height="490px" enable-background="new 0 0 700 490">
<g transform="matrix(1, 0, 0, 1, 2.842170943040401e-14, 7.105427357601002e-15)">
		
		
	</g><path d="M 245.882996 101.211998 A 5 5 0 0 1 240.882996 106.211998 A 5 5 0 0 1 235.882996 101.211998 A 5 5 0 0 1 240.882996 96.211998 A 5 5 0 0 1 245.882996 101.211998 Z" fill="#F2BDB7" transform="matrix(1, 0, 0, 1, 5.684341886080802e-14, 1.4210854715202004e-14)"/><path d="M 259.66101 85.946999 A 3.513 3.513 0 0 1 256.14801 89.459999 A 3.513 3.513 0 0 1 252.63501 85.946999 A 3.513 3.513 0 0 1 256.14801 82.433999 A 3.513 3.513 0 0 1 259.66101 85.946999 Z" fill="#F2BDB7" transform="matrix(1, 0, 0, 1, 5.684341886080802e-14, 1.4210854715202004e-14)"/><path d="M 99.626998 229.628998 A 3.513 3.513 0 0 1 96.113998 233.141998 A 3.513 3.513 0 0 1 92.600998 229.628998 A 3.513 3.513 0 0 1 96.113998 226.115998 A 3.513 3.513 0 0 1 99.626998 229.628998 Z" fill="#F2BDB7" transform="matrix(1, 0, 0, 1, 5.684341886080802e-14, 1.4210854715202004e-14)"/><path d="M 293.640991 343.55899 A 3.513 3.513 0 0 1 290.127991 347.07199 A 3.513 3.513 0 0 1 286.614991 343.55899 A 3.513 3.513 0 0 1 290.127991 340.04599 A 3.513 3.513 0 0 1 293.640991 343.55899 Z" fill="#F2BDB7" transform="matrix(1, 0, 0, 1, 5.684341886080802e-14, 1.4210854715202004e-14)"/><path d="M 477.846008 183.751007 A 3.513 3.513 0 0 1 474.333008 187.264007 A 3.513 3.513 0 0 1 470.820008 183.751007 A 3.513 3.513 0 0 1 474.333008 180.238007 A 3.513 3.513 0 0 1 477.846008 183.751007 Z" fill="#F2BDB7" transform="matrix(1, 0, 0, 1, 5.684341886080802e-14, 1.4210854715202004e-14)"/><path d="M 629.179992 237.815994 A 3.513 3.513 0 0 1 625.666992 241.328994 A 3.513 3.513 0 0 1 622.153992 237.815994 A 3.513 3.513 0 0 1 625.666992 234.302994 A 3.513 3.513 0 0 1 629.179992 237.815994 Z" fill="#F2BDB7" transform="matrix(1, 0, 0, 1, 5.684341886080802e-14, 1.4210854715202004e-14)"/><path d="M 611.986022 321.994995 A 3.513 3.513 0 0 1 608.473022 325.507995 A 3.513 3.513 0 0 1 604.960022 321.994995 A 3.513 3.513 0 0 1 608.473022 318.481995 A 3.513 3.513 0 0 1 611.986022 321.994995 Z" fill="#F2BDB7" transform="matrix(1, 0, 0, 1, 5.684341886080802e-14, 1.4210854715202004e-14)"/><path d="M 441.02301 293.376007 A 3.513 3.513 0 0 1 437.51001 296.889007 A 3.513 3.513 0 0 1 433.99701 293.376007 A 3.513 3.513 0 0 1 437.51001 289.863007 A 3.513 3.513 0 0 1 441.02301 293.376007 Z" fill="#F2BDB7" transform="matrix(1, 0, 0, 1, 5.684341886080802e-14, 1.4210854715202004e-14)"/><path d="M 493.391998 374.718994 A 5 5 0 0 1 488.391998 379.718994 A 5 5 0 0 1 483.391998 374.718994 A 5 5 0 0 1 488.391998 369.718994 A 5 5 0 0 1 493.391998 374.718994 Z" fill="#F2BDB7" transform="matrix(1, 0, 0, 1, 5.684341886080802e-14, 1.4210854715202004e-14)"/><path d="M 507.170013 359.453003 A 3.513 3.513 0 0 1 503.657013 362.966003 A 3.513 3.513 0 0 1 500.144013 359.453003 A 3.513 3.513 0 0 1 503.657013 355.940003 A 3.513 3.513 0 0 1 507.170013 359.453003 Z" fill="#F2BDB7" transform="matrix(1, 0, 0, 1, 5.684341886080802e-14, 1.4210854715202004e-14)"/><path d="M 96.113998 398.497009 A 5 5 0 0 1 91.113998 403.497009 A 5 5 0 0 1 86.113998 398.497009 A 5 5 0 0 1 91.113998 393.497009 A 5 5 0 0 1 96.113998 398.497009 Z" fill="#F2BDB7" transform="matrix(1, 0, 0, 1, 5.684341886080802e-14, 1.4210854715202004e-14)"/><path d="M 75.082001 68 A 5 5 0 0 1 70.082001 73 A 5 5 0 0 1 65.082001 68 A 5 5 0 0 1 70.082001 63 A 5 5 0 0 1 75.082001 68 Z" fill="#F2BDB7" transform="matrix(1, 0, 0, 1, 5.684341886080802e-14, 1.4210854715202004e-14)"/><path d="M 257.634995 224.630005 A 5 5 0 0 1 252.634995 229.630005 A 5 5 0 0 1 247.634995 224.630005 A 5 5 0 0 1 252.634995 219.630005 A 5 5 0 0 1 257.634995 224.630005 Z" fill="#F2BDB7" transform="matrix(1, 0, 0, 1, 5.684341886080802e-14, 1.4210854715202004e-14)"/><path d="M 610.749023 63 A 5 5 0 0 1 605.749023 68 A 5 5 0 0 1 600.749023 63 A 5 5 0 0 1 605.749023 58 A 5 5 0 0 1 610.749023 63 Z" fill="#F2BDB7" transform="matrix(1, 0, 0, 1, 5.684341886080802e-14, 1.4210854715202004e-14)"/><path d="M 109.891998 383.230988 A 3.513 3.513 0 0 1 106.378998 386.743988 A 3.513 3.513 0 0 1 102.865998 383.230988 A 3.513 3.513 0 0 1 106.378998 379.717988 A 3.513 3.513 0 0 1 109.891998 383.230988 Z" fill="#F2BDB7" transform="matrix(1, 0, 0, 1, 5.684341886080802e-14, 1.4210854715202004e-14)"/><path d="M 152.8459930419922 101.4800033569336 L 120.13899993896484 164.11300659179688 L 185.45700073242188 164.11300659179688 Z" fill="#FDB151" transform="matrix(1, 0, 0, 1, 8.526512829121202e-14, 2.1316282072803006e-14)"/><path fill="#FF7886" d="M158.762,116.317l-30.789,30.789c-1.401,1.4,0.769,3.57,2.17,2.17l30.789-30.789&#10;&#9;&#9;&#9;&#9;C162.334,117.086,160.164,114.916,158.762,116.317z" transform="matrix(1, 0, 0, 1, 8.526512829121202e-14, 2.1316282072803006e-14)"/><path fill="#FF7886" d="M166.627,128.882c-11.35,11.348-22.7,22.699-34.05,34.05c-1.401,1.4,0.769,3.57,2.17,2.17&#10;&#9;&#9;&#9;&#9;c11.35-11.351,22.701-22.701,34.05-34.05C170.199,129.651,168.029,127.481,166.627,128.882z" transform="matrix(1, 0, 0, 1, 8.526512829121202e-14, 2.1316282072803006e-14)"/><path fill="#FF7886" d="M173.054,144.229l-18.704,18.703c-1.401,1.4,0.769,3.57,2.17,2.17l18.703-18.704&#10;&#9;&#9;&#9;&#9;C176.625,144.997,174.455,142.827,173.054,144.229z" transform="matrix(1, 0, 0, 1, 8.526512829121202e-14, 2.1316282072803006e-14)"/><path fill="#303E5C" d="M187.531,163.849c-3.477-6.807-28.995-56.773-32.643-63.916c2.056-2.076,6.66-0.896,9.301-1.729&#10;&#9;&#9;&#9;&#9;c2.377-0.75,4.82-2.272,6.946-3.553c2.378-1.434,4.835-2.712,7.176-4.204c1.727-1.101,5.896-0.898,8.081-1.838&#10;&#9;&#9;&#9;&#9;c1.813-0.78,0.249-3.423-1.55-2.649c-2.572,1.106-5.482,0.723-8.081,1.837c-3.011,1.292-5.903,3.437-8.711,5.13&#10;&#9;&#9;&#9;&#9;c-3.724,2.244-7.729,2.486-11.882,3.044c3.029-2.306,8.904-1.644,11.334-5.354c1.312-2.002,1.913-4.064,4.084-5.545&#10;&#9;&#9;&#9;&#9;c1.587-1.081,4.143-1.329,6.013-1.678c3.156-0.591,5.601-1.64,7.823-3.976c1.364-1.433-0.803-3.606-2.17-2.17&#10;&#9;&#9;&#9;&#9;c-3.363,3.535-7.611,2.643-11.684,4.483c-4.5,2.034-5.242,7.234-9.755,8.898c-2.858,1.054-5.491,1.679-7.423,2.879&#10;&#9;&#9;&#9;&#9;c0.156-0.305,0.325-0.625,0.513-0.978c0.97-1.829,0.616-3.895,0.376-5.852c-0.458-3.754,3.834-3.903,6.067-5.174&#10;&#9;&#9;&#9;&#9;c1.546-0.881,2.342-1.882,2.985-3.531c0.722-1.846-2.248-2.638-2.958-0.815c-0.874,2.236-4.685,2.584-6.456,3.943&#10;&#9;&#9;&#9;&#9;c-1.65,1.265-2.476,2.707-2.743,4.729c-0.112,0.859,0.165,1.908,0.265,2.758c0.234,1.998-0.855,3.558-1.764,5.217&#10;&#9;&#9;&#9;&#9;c-1.172,2.143-0.525,3.728,0.07,5.862c-7.487,14.66-29.109,56.998-32.727,64.083c-1.362,0.545-1.172,2.953,0.584,2.953h66.373&#10;&#9;&#9;&#9;&#9;c0.587,0,0.979-0.283,1.217-0.663C187.174,165.965,188.115,164.993,187.531,163.849z M152.75,102.49&#10;&#9;&#9;&#9;&#9;c1.76,3.447,3.521,6.893,5.28,10.338c-7.193,7.194-14.389,14.389-21.582,21.584C141.881,123.771,147.315,113.131,152.75,102.49z&#10;&#9;&#9;&#9;&#9; M131.917,143.281c9.194-9.193,18.387-18.386,27.58-27.579c0.322,0.631,0.646,1.262,0.968,1.895&#10;&#9;&#9;&#9;&#9;c-10.513,10.515-21.025,21.026-31.538,31.538C129.923,147.184,130.92,145.232,131.917,143.281z M129.027,163.633h-7.504&#10;&#9;&#9;&#9;&#9;c1.226-2.401,2.452-4.8,3.676-7.2c0.4,0.051,24.888-24.118,36.732-35.962c1.136,2.224,2.272,4.448,3.41,6.675&#10;&#9;&#9;&#9;&#9;c-11.991,11.989-23.983,23.982-35.975,35.973C129.206,163.283,129.101,163.457,129.027,163.633z M136.042,163.633h-2.848&#10;&#9;&#9;&#9;&#9;c11.204-11.206,22.408-22.411,33.614-33.615c0.306,0.6,0.612,1.199,0.917,1.798c-10.474,10.476-20.95,20.952-31.426,31.427&#10;&#9;&#9;&#9;&#9;C136.177,163.367,136.113,163.5,136.042,163.633z M150.484,163.633h-10.233c9.647-9.648,19.295-19.297,28.942-28.945&#10;&#9;&#9;&#9;&#9;c1.164,2.279,2.327,4.559,3.492,6.837c-0.122,0.069-0.244,0.126-0.358,0.238c-7.264,7.263-14.526,14.526-21.789,21.789&#10;&#9;&#9;&#9;&#9;C150.512,163.578,150.508,163.606,150.484,163.633z M157.356,163.633h-2.56c6.438-6.438,12.876-12.876,19.315-19.315&#10;&#9;&#9;&#9;&#9;c0.271,0.531,0.542,1.061,0.814,1.593c-5.757,5.756-11.513,11.513-17.27,17.269C157.514,163.325,157.43,163.478,157.356,163.633z&#10;&#9;&#9;&#9;&#9; M161.545,163.633c4.949-4.95,9.899-9.9,14.847-14.849c2.528,4.949,5.055,9.899,7.583,14.849H161.545z" transform="matrix(1, 0, 0, 1, 8.526512829121202e-14, 2.1316282072803006e-14)"/><path d="M 118.7239990234375 119.67900085449219 L 86.01699829101562 182.31100463867188 L 151.3350067138672 182.31100463867188 Z" fill="#FF7BA2" transform="matrix(1, 0, 0, 1, 8.526512829121202e-14, 2.1316282072803006e-14)"/><path fill="#FDB151" d="M124.641,134.516l-30.789,30.789c-1.401,1.4,0.769,3.57,2.17,2.17l30.789-30.789&#10;&#9;&#9;&#9;&#9;C128.212,135.284,126.042,133.114,124.641,134.516z" transform="matrix(1, 0, 0, 1, 8.526512829121202e-14, 2.1316282072803006e-14)"/><path fill="#FDB151" d="M132.506,147.081c-11.35,11.348-22.701,22.699-34.05,34.05c-1.401,1.399,0.769,3.57,2.17,2.17&#10;&#9;&#9;&#9;&#9;c11.35-11.351,22.7-22.7,34.05-34.05C136.077,147.849,133.907,145.679,132.506,147.081z" transform="matrix(1, 0, 0, 1, 8.526512829121202e-14, 2.1316282072803006e-14)"/><path fill="#FDB151" d="M138.932,162.427l-18.704,18.704c-1.401,1.399,0.769,3.57,2.17,2.17l18.704-18.704&#10;&#9;&#9;&#9;&#9;C142.503,163.196,140.333,161.025,138.932,162.427z" transform="matrix(1, 0, 0, 1, 8.526512829121202e-14, 2.1316282072803006e-14)"/><path fill="#303E5C" d="M153.409,182.047c-3.477-6.807-28.995-56.772-32.643-63.916c2.056-2.076,6.66-0.896,9.301-1.729&#10;&#9;&#9;&#9;&#9;c2.377-0.75,4.82-2.272,6.946-3.554c2.378-1.434,4.835-2.712,7.176-4.204c1.727-1.101,5.896-0.898,8.081-1.838&#10;&#9;&#9;&#9;&#9;c1.813-0.78,0.249-3.423-1.549-2.649c-2.572,1.106-5.482,0.723-8.081,1.837c-3.011,1.292-5.903,3.437-8.712,5.13&#10;&#9;&#9;&#9;&#9;c-3.724,2.244-7.729,2.486-11.881,3.044c3.029-2.306,8.904-1.644,11.334-5.354c1.312-2.001,1.912-4.064,4.084-5.545&#10;&#9;&#9;&#9;&#9;c1.587-1.081,4.142-1.328,6.013-1.678c3.156-0.59,5.601-1.64,7.823-3.976c1.364-1.433-0.803-3.606-2.17-2.17&#10;&#9;&#9;&#9;&#9;c-3.363,3.535-7.612,2.643-11.684,4.483c-4.5,2.034-5.242,7.234-9.755,8.898c-2.858,1.054-5.491,1.679-7.423,2.879&#10;&#9;&#9;&#9;&#9;c0.156-0.305,0.325-0.625,0.513-0.978c0.969-1.829,0.616-3.894,0.376-5.852c-0.458-3.754,3.833-3.903,6.066-5.174&#10;&#9;&#9;&#9;&#9;c1.547-0.881,2.343-1.882,2.985-3.531c0.723-1.846-2.248-2.638-2.958-0.815c-0.874,2.236-4.685,2.584-6.457,3.943&#10;&#9;&#9;&#9;&#9;c-1.65,1.265-2.476,2.707-2.742,4.729c-0.113,0.86,0.165,1.908,0.265,2.759c0.234,1.998-0.856,3.558-1.764,5.217&#10;&#9;&#9;&#9;&#9;c-1.172,2.143-0.524,3.728,0.07,5.862c-7.487,14.66-29.108,56.998-32.726,64.083c-1.362,0.545-1.172,2.952,0.584,2.952h66.373&#10;&#9;&#9;&#9;&#9;c0.587,0,0.979-0.283,1.217-0.663C153.052,184.164,153.994,183.191,153.409,182.047z M118.628,120.689&#10;&#9;&#9;&#9;&#9;c1.759,3.447,3.521,6.892,5.28,10.338c-7.193,7.193-14.389,14.389-21.583,21.583C107.76,141.97,113.194,131.33,118.628,120.689z&#10;&#9;&#9;&#9;&#9; M97.795,161.479c9.194-9.193,18.387-18.386,27.58-27.579c0.322,0.631,0.646,1.262,0.968,1.895&#10;&#9;&#9;&#9;&#9;c-10.513,10.515-21.025,21.026-31.538,31.538C95.802,165.382,96.798,163.431,97.795,161.479z M94.905,181.832h-7.503&#10;&#9;&#9;&#9;&#9;c1.226-2.401,2.452-4.8,3.676-7.2c0.4,0.051,24.888-24.118,36.732-35.962c1.136,2.224,2.272,4.448,3.409,6.675&#10;&#9;&#9;&#9;&#9;c-11.991,11.99-23.983,23.982-35.974,35.973C95.084,181.481,94.979,181.655,94.905,181.832z M101.921,181.832h-2.848&#10;&#9;&#9;&#9;&#9;c11.204-11.206,22.408-22.411,33.614-33.615c0.306,0.6,0.611,1.199,0.917,1.798c-10.474,10.476-20.95,20.952-31.425,31.427&#10;&#9;&#9;&#9;&#9;C102.056,181.565,101.991,181.698,101.921,181.832z M116.362,181.832h-10.233c9.647-9.648,19.295-19.297,28.942-28.945&#10;&#9;&#9;&#9;&#9;c1.165,2.279,2.328,4.559,3.492,6.837c-0.122,0.069-0.245,0.126-0.358,0.238c-7.264,7.263-14.526,14.527-21.789,21.789&#10;&#9;&#9;&#9;&#9;C116.391,181.776,116.386,181.805,116.362,181.832z M123.235,181.832h-2.56c6.438-6.438,12.876-12.876,19.315-19.315&#10;&#9;&#9;&#9;&#9;c0.271,0.531,0.542,1.061,0.813,1.593c-5.756,5.756-11.513,11.513-17.269,17.269&#10;&#9;&#9;&#9;&#9;C123.392,181.523,123.308,181.676,123.235,181.832z M127.424,181.832c4.948-4.95,9.898-9.9,14.847-14.849&#10;&#9;&#9;&#9;&#9;c2.528,4.948,5.055,9.898,7.583,14.849H127.424z" transform="matrix(1, 0, 0, 1, 8.526512829121202e-14, 2.1316282072803006e-14)"/><g transform="matrix(1, 0, 0, 1, 8.526512829121202e-14, 2.1316282072803006e-14)">
				<path fill="#EC2A5E" d="M410.146,95.811c-0.112-1.148-1.701-2.268-2.619-1.085c-4.129,5.317-7.261,9.103-14.605,9.493&#10;&#9;&#9;&#9;&#9;&#9;c-0.279,0.015-0.557,0.008-0.834,0.01c-0.258-0.018-0.516-0.037-0.772-0.055c-0.146-0.396-0.444-0.736-0.967-0.891&#10;&#9;&#9;&#9;&#9;&#9;c-0.44-0.13-0.871-0.238-1.298-0.333c-4.163-1.299-8.518-0.86-11.766,2.096c-2.952,2.233-4.426,6.582-6.853,9.579&#10;&#9;&#9;&#9;&#9;&#9;c-1.743,1.204-3.641,2.231-5.807,2.985c-0.416-0.206-0.815-0.168-1.145,0.023c-0.764-0.161-1.571-0.448-2.436-0.893&#10;&#9;&#9;&#9;&#9;&#9;c-1.758-0.904-3.311,1.745-1.55,2.65c1.709,0.879,3.221,1.341,4.591,1.498c5.014,2.867,10.091-2.335,12.344-6.652&#10;&#9;&#9;&#9;&#9;&#9;c0.136-0.259,0.174-0.509,0.171-0.749c1.597-1.795,3.37-3.683,5.27-5.118c1.572-0.844,3.343-1.366,5.428-1.347&#10;&#9;&#9;&#9;&#9;&#9;C396.681,107.104,411.514,109.821,410.146,95.811z"/>
				<path fill="#303E5C" d="M407.598,91.672c-1.262-0.668-2.401,0.525-2.29,1.589c-0.213,0.108-0.412,0.266-0.577,0.495&#10;&#9;&#9;&#9;&#9;&#9;c-2.243,3.106-4.258,5.141-7.528,7.183c-4.603,2.874-8.649,0.038-12.897-0.897c-2.006-0.441-4.826,0.148-6.39,1.519&#10;&#9;&#9;&#9;&#9;&#9;c-3.9,3.419-10.644,18.509-16.56,11.835c-0.528-0.597-1.187-0.587-1.708-0.283c-0.468,0.114-0.897,0.403-1.112,0.96&#10;&#9;&#9;&#9;&#9;&#9;c-0.652,1.66-1.453,3.243-2.402,4.749c-0.388,0.667-0.213,1.753,0.55,2.1c4.773,2.17,12.406,5.89,16.904,0.976&#10;&#9;&#9;&#9;&#9;&#9;c2.24-2.448,3.724-5.067,5.269-8c4.109-7.801,11.017-5.31,17.952-3.935C406.908,111.966,419.697,98.086,407.598,91.672z&#10;&#9;&#9;&#9;&#9;&#9; M404.702,105.595c-4.12,2.999-9.259,0.954-13.562-0.069c-2.772-0.66-6.527-1.024-9.115,0.474&#10;&#9;&#9;&#9;&#9;&#9;c-2.712,1.569-4.286,3.652-5.819,6.351c-0.849,1.495-1.606,3.035-2.471,4.523c-3.779,6.515-9.271,4.259-14.125,2.032&#10;&#9;&#9;&#9;&#9;&#9;c0.357-0.653,0.688-1.309,1.002-1.976c5.842,4.67,11.208-2.451,14.872-7.584c2.509-3.515,4.212-7.178,9.797-5.948&#10;&#9;&#9;&#9;&#9;&#9;c3.062,0.674,5.251,1.902,8.458,1.817c5.8-0.154,10.561-5.642,13.642-9.908c0.012-0.017,0.019-0.035,0.03-0.052&#10;&#9;&#9;&#9;&#9;&#9;C411.29,98.564,407.434,103.607,404.702,105.595z"/>
			</g><path fill="#FDB151" d="M422.514,151.262c-0.129,0.059-0.309,0.045-0.504,0.046c-0.012,0-0.021,0.007-0.035,0.007&#10;&#9;&#9;&#9;&#9;&#9;c-0.478-0.774-1.538-1.188-2.329-0.325c-6.103,6.662-18.855-0.918-24.73-4.749c-5.732-3.738-10.466-7.029-17.227-6.112&#10;&#9;&#9;&#9;&#9;&#9;c-0.749-0.935-2.588-0.59-2.74,0.948v2.813c0,0.95,0.708,1.431,1.443,1.47c0.456,0.309,1.052,0.37,1.633,0.111&#10;&#9;&#9;&#9;&#9;&#9;c1.957-0.871,4.533-0.521,6.491,0.155c0.81,0.279,1.398-0.126,1.68-0.716c10.629,4.637,23.073,16.344,32.619,10.718&#10;&#9;&#9;&#9;&#9;&#9;c0.384,0.438,1.002,0.704,1.556,0.485c1.523-0.599,2.926-1.151,4.005-2.441C425.52,152.303,424.117,150.533,422.514,151.262z" transform="matrix(1, 0, 0, 1, 1.1368683772161603e-13, 2.842170943040401e-14)"/><path fill="#303E5C" d="M422.055,147.463c-0.959-1.47-3.171-0.408-2.868,1.018c-3.36,7.799-17.794-1.626-21.979-4.125&#10;&#9;&#9;&#9;&#9;&#9;c-7.114-4.25-13.973-8.834-22.412-5.783c-0.172,0.062-0.298,0.16-0.425,0.258c-1.025,0.083-1.974,1.135-1.26,2.253&#10;&#9;&#9;&#9;&#9;&#9;c0.814,1.275,1.171,2.479,0.612,3.932c-0.155,0.404-0.113,0.745,0.021,1.032c-0.078,0.976,0.675,2.018,1.867,1.624&#10;&#9;&#9;&#9;&#9;&#9;c17.02-5.633,30.656,19.266,47.139,9.371c0.905,0.314,2.102-0.146,2.074-1.387C424.759,152.634,423.694,149.971,422.055,147.463&#10;&#9;&#9;&#9;&#9;&#9;z M377.033,144.168c0.076-0.99-0.066-1.974-0.416-2.912c10.205-2.792,20.865,7.538,30.002,11.371&#10;&#9;&#9;&#9;&#9;&#9;c5.008,2.1,10.886,3.017,14.177-1.042c0.36,0.826,0.633,1.681,0.795,2.579C407.733,162.871,392.609,141.437,377.033,144.168z" transform="matrix(1, 0, 0, 1, 1.1368683772161603e-13, 2.842170943040401e-14)"/><path fill="#80CDD7" d="M426.727,118.891c-0.392-0.312-0.802-0.604-1.227-0.874c-0.96-0.611-2.36,0.18-2.309,1.325&#10;&#9;&#9;&#9;&#9;&#9;c0.293,6.621-9.053,8.192-13.805,5.837c-0.884-0.438-1.715,0.005-2.103,0.668c-0.709,0.23-1.325,0.897-1.174,1.832&#10;&#9;&#9;&#9;&#9;&#9;c0.706,4.387,7.909,4.089,11.108,3.839c6.06-0.473,8.281-3.992,10.564-8.664c0.432-0.322,0.732-0.837,0.692-1.435&#10;&#9;&#9;&#9;&#9;&#9;c0.045-0.094,0.088-0.186,0.133-0.28C429.272,119.751,427.809,118.521,426.727,118.891z" transform="matrix(1, 0, 0, 1, 1.1368683772161603e-13, 2.842170943040401e-14)"/><path fill="#303E5C" d="M429.102,117.749c-1.466-1.184-2.857-2.42-4.735-2.956c-1.365-0.391-2.147,1.012-1.796,2.042&#10;&#9;&#9;&#9;&#9;&#9;c-1.293,3.698-2.921,6.967-7.308,7.367c-2.812,0.256-5.552-1.005-8.351-0.649c-0.898-0.298-2.094,0.338-2.086,1.487&#10;&#9;&#9;&#9;&#9;&#9;c-0.001,0.025,0.002,0.05,0.002,0.076c0.004,0.089-0.017,0.167,0.003,0.261c0.382,1.789,0.446,3.416,0.457,5.219&#10;&#9;&#9;&#9;&#9;&#9;c0.004,0.896,0.698,1.457,1.534,1.535c5.841,0.546,11.622,2.875,17.082-0.297c4.275-2.484,5.503-8.097,7.161-12.34&#10;&#9;&#9;&#9;&#9;&#9;C431.587,118.162,430.189,117.396,429.102,117.749z M422.354,129.183c-3.676,2.817-9.511,0.836-14.025,0.084&#10;&#9;&#9;&#9;&#9;&#9;c-0.032-0.931-0.104-1.85-0.221-2.768c1.758-0.082,3.63,0.427,5.314,0.646c2.197,0.283,4.157-0.075,6.171-0.943&#10;&#9;&#9;&#9;&#9;&#9;c3.016-1.298,4.546-4.648,5.628-7.655c0.801,0.516,1.539,1.162,2.273,1.782C426.323,123.608,425.238,126.974,422.354,129.183z" transform="matrix(1, 0, 0, 1, 1.1368683772161603e-13, 2.842170943040401e-14)"/><path fill="#80CDD7" d="M357.609,154.949c-0.011-0.002-0.021-0.004-0.031-0.007c2.735-6.422-0.526-15.591-2.556-21.527&#10;&#9;&#9;&#9;&#9;&#9;c-3.246-9.496-8.766-19.112-17.764-24.095c-1.246-0.69-2.376,0.485-2.28,1.557c-1.697,1.222-2.958,2.813-4.278,4.587&#10;&#9;&#9;&#9;&#9;&#9;c-3.865,5.19-8.084,9.251-13.04,13.403c-9.651,8.083-18.676,16.871-28.556,24.685c-0.995,0.787-0.451,1.951,0.47,2.369&#10;&#9;&#9;&#9;&#9;&#9;c0.198,0.745,0.86,1.317,1.79,0.963c4.075-1.552,8.573-0.799,12.809-0.404c5.986,0.559,12.119-0.221,18.114-0.457&#10;&#9;&#9;&#9;&#9;&#9;c5.614-0.219,11.102,0.15,16.688,0.65c5.128,0.46,10.356-0.044,15.442,0.758c0.28,0.135,0.597,0.201,0.913,0.175&#10;&#9;&#9;&#9;&#9;&#9;c0.488,0.093,0.978,0.179,1.463,0.301C358.714,158.393,359.527,155.433,357.609,154.949z" transform="matrix(1, 0, 0, 1, 1.1368683772161603e-13, 2.842170943040401e-14)"/><path fill="#EC2A5E" d="M307.644,137.951c-0.806-0.655-1.793-0.355-2.319,0.255c-1.119,0.178-1.799,2.01-0.563,2.922&#10;&#9;&#9;&#9;&#9;&#9;c4.1,3.03,4.125,8.897,4.355,13.51c0.032,0.631,0.439,1.365,1.127,1.48c1.32,0.22,1.798,0.22,3.118,0&#10;&#9;&#9;&#9;&#9;&#9;c0.708-0.119,1.066-0.848,1.127-1.48C315.088,148.293,312.613,141.995,307.644,137.951z" transform="matrix(1, 0, 0, 1, 1.1368683772161603e-13, 2.842170943040401e-14)"/><path fill="#EC2A5E" d="M320.378,125.69c-1.782-0.833-3.342,1.812-1.55,2.649c8.931,4.172,14.014,18.554,9.17,27.315&#10;&#9;&#9;&#9;&#9;&#9;c-0.959,1.733,1.691,3.281,2.649,1.55C336.259,147.056,330.874,130.594,320.378,125.69z" transform="matrix(1, 0, 0, 1, 1.1368683772161603e-13, 2.842170943040401e-14)"/><path fill="#EC2A5E" d="M349.452,146.892c0.516-5.929-0.63-11.86-3.465-17.609c-2.688-5.454-8.445-13.18-14.723-14.49&#10;&#9;&#9;&#9;&#9;&#9;c-1.931-0.403-2.752,2.555-0.815,2.959c5.307,1.108,9.482,7.638,12.179,11.848c2.506,3.913,3.761,8.412,3.946,12.975&#10;&#9;&#9;&#9;&#9;&#9;c-0.632,0.267-1.094,0.877-0.828,1.728c0.312,0.993,0.525,1.969,0.644,2.931c-0.343,2.991-1.113,5.933-2.278,8.676&#10;&#9;&#9;&#9;&#9;&#9;c-0.772,1.818,1.461,3.162,2.649,1.55C349.164,154.201,349.928,150.626,349.452,146.892z" transform="matrix(1, 0, 0, 1, 1.1368683772161603e-13, 2.842170943040401e-14)"/><path fill="#303E5C" d="M355.612,129.676c-1.854-4.639-4.144-9-6.976-13.117c-3.11-4.522-6.521-5.515-10.445-8.379&#10;&#9;&#9;&#9;&#9;&#9;c-0.512-1.002-1.972-1.615-3.059-0.591c-16.671,15.693-33.343,31.387-50.014,47.081c-1.038,0.976-0.488,2.268,0.489,2.803&#10;&#9;&#9;&#9;&#9;&#9;c0.258,0.166,0.558,0.294,0.948,0.313c23.125,1.129,46.25,2.257,69.377,3.386c0.536,0.334,1.326,0.367,1.908-0.03&#10;&#9;&#9;&#9;&#9;&#9;c1.069-0.292,1.488-1.415,1.178-2.319C362.479,148.837,359.471,139.327,355.612,129.676z M306.952,155.202&#10;&#9;&#9;&#9;&#9;&#9;c-5.396-0.263-10.792-0.527-16.188-0.79c4.085-3.846,8.17-7.69,12.255-11.536C306.94,144.868,308.018,151.097,306.952,155.202z&#10;&#9;&#9;&#9;&#9;&#9; M312.504,155.473c-0.804-0.039-1.607-0.079-2.411-0.118c1.163-5.071-0.51-11.636-4.787-14.632l2.895-2.725&#10;&#9;&#9;&#9;&#9;&#9;c1.319,1.952,2.598,3.935,3.722,6.004C313.067,146.109,313.773,152.746,312.504,155.473z M325.998,156.132&#10;&#9;&#9;&#9;&#9;&#9;c-3.464-0.169-6.929-0.338-10.393-0.507c0.879-3.161,0.32-7.233,0.004-10.03c-0.398-3.513-3.111-6.86-5.135-9.737&#10;&#9;&#9;&#9;&#9;&#9;c2.088-1.964,4.175-3.929,6.262-5.895C323.366,134.714,331.312,148.54,325.998,156.132z M330.073,156.331&#10;&#9;&#9;&#9;&#9;&#9;c-0.224-0.011-0.449-0.022-0.673-0.033c4.341-9.175-2.813-22.645-10.393-28.473c0.372-0.351,0.744-0.701,1.116-1.051&#10;&#9;&#9;&#9;&#9;&#9;C328.805,133.536,333.782,145.718,330.073,156.331z M341.963,156.324c-0.253,0.103-0.462,0.292-0.62,0.557&#10;&#9;&#9;&#9;&#9;&#9;c-2.691-0.131-5.383-0.263-8.074-0.394c3.709-11.493-1.811-24.334-10.918-31.809c2.115-1.991,4.23-3.982,6.346-5.973&#10;&#9;&#9;&#9;&#9;&#9;C341.311,125.229,348.633,143.368,341.963,156.324z M331.059,116.48c0.273-0.258,0.548-0.516,0.821-0.773&#10;&#9;&#9;&#9;&#9;&#9;c14.181,7.637,21.628,26.804,15.257,41.457c-0.702-0.035-1.404-0.068-2.105-0.103&#10;&#9;&#9;&#9;&#9;&#9;C351.715,143.09,344.363,123.915,331.059,116.48z M356.194,157.605c-1.939-0.094-3.879-0.189-5.817-0.284&#10;&#9;&#9;&#9;&#9;&#9;c5.993-15.732-1.285-35.304-16.147-43.826c0.913-0.86,1.826-1.721,2.74-2.58c2.101,1.243,4.332,2.129,6.226,3.898&#10;&#9;&#9;&#9;&#9;&#9;c3.404,3.181,5.66,7.591,7.717,11.708C355.682,136.066,359.526,147.193,356.194,157.605z" transform="matrix(1, 0, 0, 1, 1.1368683772161603e-13, 2.842170943040401e-14)"/><path fill="#303E5C" d="M356.496,101.375c-0.642-0.642-1.515-0.52-2.17,0c-1.379,1.093-2.832,2.09-4.092,3.326&#10;&#9;&#9;&#9;&#9;c-1.416,1.387,0.756,3.556,2.17,2.17c1.261-1.235,2.713-2.232,4.092-3.326C357.153,103.025,357.037,101.916,356.496,101.375z" transform="matrix(1, 0, 0, 1, 8.526512829121202e-14, 2.1316282072803006e-14)"/><path fill="#303E5C" d="M367.944,132.386c-1.114,0.021-2.212,0.236-3.325,0.256c-1.977,0.035-1.98,3.104,0,3.069&#10;&#9;&#9;&#9;&#9;c1.113-0.02,2.211-0.236,3.325-0.256C369.921,135.42,369.925,132.351,367.944,132.386z" transform="matrix(1, 0, 0, 1, 8.526512829121202e-14, 2.1316282072803006e-14)"/><path fill="#303E5C" d="M387.383,165.381c-1.628-0.033-3.154-0.521-4.708-0.968c-1.905-0.549-2.714,2.413-0.814,2.96&#10;&#9;&#9;&#9;&#9;c1.819,0.524,3.615,1.039,5.522,1.078C389.363,168.49,389.36,165.42,387.383,165.381z" transform="matrix(1, 0, 0, 1, 8.526512829121202e-14, 2.1316282072803006e-14)"/><path fill="#303E5C" d="M395.56,117.25c-0.862,0.582-1.693,1.208-2.557,1.791c-1.631,1.1-0.097,3.761,1.549,2.65&#10;&#9;&#9;&#9;&#9;c0.863-0.582,1.694-1.208,2.558-1.791C398.74,118.799,397.206,116.138,395.56,117.25z" transform="matrix(1, 0, 0, 1, 8.526512829121202e-14, 2.1316282072803006e-14)"/><path fill="#303E5C" d="M393.273,84.767c-0.792-0.464-1.591-0.111-2.1,0.55c-0.349,0.453-0.454,0.981-0.466,1.542&#10;&#9;&#9;&#9;&#9;c-0.041,1.98,3.028,1.977,3.069,0c-0.042,0.036-0.027,0.039,0.046,0.008C394.336,86.201,393.926,85.148,393.273,84.767z" transform="matrix(1, 0, 0, 1, 8.526512829121202e-14, 2.1316282072803006e-14)"/><path fill="#303E5C" d="M421.138,106.251c-1.122,0.562-2.206,1.157-3.123,2.03c-1.438,1.367,0.737,3.533,2.17,2.17&#10;&#9;&#9;&#9;&#9;c0.718-0.683,1.625-1.11,2.503-1.55C424.457,108.015,422.901,105.368,421.138,106.251z" transform="matrix(1, 0, 0, 1, 8.526512829121202e-14, 2.1316282072803006e-14)"/><path fill="#303E5C" d="M437.306,149.516c-0.488-0.888-1.264-1.519-2.085-2.084c-0.69-0.476-1.701-0.131-2.1,0.55&#10;&#9;&#9;&#9;&#9;c-0.446,0.763-0.137,1.626,0.55,2.1c0.397,0.274,0.753,0.563,0.985,0.985C435.61,152.799,438.26,151.251,437.306,149.516z" transform="matrix(1, 0, 0, 1, 8.526512829121202e-14, 2.1316282072803006e-14)"/><path fill="#303E5C" d="M341.352,98.833c-0.662-0.388-1.76-0.214-2.1,0.55c-0.163,0.365-0.264,0.925-0.527,1.224&#10;&#9;&#9;&#9;&#9;c-1.305,1.478,0.857,3.657,2.17,2.17c0.514-0.582,0.701-1.159,1.007-1.845C342.242,100.169,342.131,99.29,341.352,98.833z" transform="matrix(1, 0, 0, 1, 8.526512829121202e-14, 2.1316282072803006e-14)"/><path fill="#303E5C" d="M373.37,89.265c-1.029,3.033-2.263,5.969-3.682,8.841c-0.874,1.768,1.772,3.324,2.649,1.549&#10;&#9;&#9;&#9;&#9;c1.535-3.106,2.879-6.293,3.992-9.575C376.968,88.201,374.002,87.401,373.37,89.265z" transform="matrix(1, 0, 0, 1, 8.526512829121202e-14, 2.1316282072803006e-14)"/><path fill="#303E5C" d="M407.141,138.463c-1.561-1.849-3.413-3.56-5.794-4.231c-1.909-0.538-2.718,2.423-0.815,2.96&#10;&#9;&#9;&#9;&#9;c1.856,0.524,3.231,2.012,4.438,3.442C406.248,142.147,408.408,139.965,407.141,138.463z" transform="matrix(1, 0, 0, 1, 8.526512829121202e-14, 2.1316282072803006e-14)"/><path fill="#303E5C" d="M370.036,165.629c-1.246-1.849-2.707-3.497-4.643-4.643c-1.707-1.012-3.25,1.642-1.549,2.649&#10;&#9;&#9;&#9;&#9;c1.476,0.874,2.591,2.133,3.542,3.543C368.486,168.81,371.146,167.276,370.036,165.629z" transform="matrix(1, 0, 0, 1, 8.526512829121202e-14, 2.1316282072803006e-14)"/><path d="M 566.2960205078125 99.00700378417969 L 504.3349914550781 99.00700378417969 L 504.3349914550781 107.31600189208984 L 508.9389953613281 107.31600189208984 L 508.9389953613281 157.125 L 561.1170043945312 157.125 L 561.1170043945312 107.31600189208984 L 566.2960205078125 107.31600189208984 Z" fill="#FF7886" transform="matrix(1, 0, 0, 1, 8.526512829121202e-14, 2.1316282072803006e-14)"/><path d="M 529.5609741210938 98.52799987792969 L 538.0980224609375 98.52799987792969 L 538.0980224609375 157.125 L 529.8489990234375 157.1320037841797 Z" fill="#FDB151" transform="matrix(1, 0, 0, 1, 8.526512829121202e-14, 2.1316282072803006e-14)"/><path fill="#303E5C" d="M567.831,106.798V98.24c0-1.28-1.277-1.719-2.184-1.343h-24.267c6.996-3.503,14.896-10.076,9.794-17.242&#10;&#9;&#9;&#9;&#9;c-3.224-4.527-9.403-3.653-13.322-0.622c-3.948,3.056-5.45,7.419-5.489,12.024c-4.078-3.107-10.512-5.242-13.08-1.299&#10;&#9;&#9;&#9;&#9;c-1.652,2.535-0.226,5.491,1.921,7.138h-17.253c-0.538,0-0.917,0.235-1.161,0.565c-0.33,0.246-0.565,0.624-0.565,1.162v8.824&#10;&#9;&#9;&#9;&#9;c0,1.022,0.818,1.506,1.61,1.472c0.103,0.021,0.191,0.063,0.309,0.063h2.941v46.167c0,0.195,0.051,0.355,0.104,0.512h-0.104&#10;&#9;&#9;&#9;&#9;c-1.979,0-1.979,3.069,0,3.069h55.247c1.785,0,1.945-2.474,0.512-2.966v-46.782h3.645&#10;&#9;&#9;&#9;&#9;C567.77,108.983,568.209,107.705,567.831,106.798z M538.811,82.202c3.192-3.14,9.233-4.125,10.854,1.147&#10;&#9;&#9;&#9;&#9;c1.051,3.416-3.385,6.767-5.699,8.41c-2.436,1.728-5.197,3.173-8.043,4.109C534.89,91.025,535.102,85.852,538.811,82.202z&#10;&#9;&#9;&#9;&#9; M521.82,91.661c0.553-3.267,8.97,1.869,10.818,4.053C528.604,96.062,521.039,96.256,521.82,91.661z M528.697,155.662h-18.646&#10;&#9;&#9;&#9;&#9;c0.053-0.156,0.104-0.317,0.104-0.512v-46.167h18.543V155.662z M528.697,105.914h-23.403v-5.947h23.403V105.914z&#10;&#9;&#9;&#9;&#9; M536.562,155.662h-4.796v-46.679h4.796V155.662z M536.562,105.914h-4.796v-5.947h4.796V105.914z M559.774,155.662h-20.143&#10;&#9;&#9;&#9;&#9;v-46.679h20.143V155.662z M564.762,105.914h-25.13v-5.947h25.13V105.914z" transform="matrix(1, 0, 0, 1, 8.526512829121202e-14, 2.1316282072803006e-14)"/><path d="M 618.4739990234375 115.55400085449219 L 556.5130004882812 115.55400085449219 L 556.5130004882812 123.86199951171875 L 561.1170043945312 123.86199951171875 L 561.1170043945312 173.6699981689453 L 613.2949829101562 173.6699981689453 L 613.2949829101562 123.86199951171875 L 618.4739990234375 123.86199951171875 Z" fill="#FCA7AD" transform="matrix(1, 0, 0, 1, 8.526512829121202e-14, 2.1316282072803006e-14)"/><path d="M 581.7379760742188 115.0739974975586 L 590.2750244140625 115.0739974975586 L 590.2750244140625 173.6699981689453 L 582.0260009765625 173.67799377441406 Z" fill="#80CDD7" transform="matrix(1, 0, 0, 1, 8.526512829121202e-14, 2.1316282072803006e-14)"/><path fill="#303E5C" d="M623.379,95.756c-4.513-0.352-8.346,2.592-11.186,5.702c-2.268,2.481-3.789,5.138-6.758,7&#10;&#9;&#9;&#9;&#9;c-2.076,1.303-4.544,1.835-7.08,2.104c5.141-3.684,8.927-8.843,4.997-14.359c-3.224-4.528-9.403-3.653-13.322-0.622&#10;&#9;&#9;&#9;&#9;c-3.948,3.056-5.45,7.419-5.489,12.024c-4.078-3.107-10.512-5.242-13.08-1.298c-1.652,2.535-0.225,5.491,1.921,7.137h-17.253&#10;&#9;&#9;&#9;&#9;c-0.538,0-0.917,0.235-1.161,0.565c-0.33,0.246-0.565,0.625-0.565,1.162v8.824c0,1.022,0.818,1.506,1.61,1.472&#10;&#9;&#9;&#9;&#9;c0.103,0.021,0.191,0.063,0.309,0.063h2.941v46.167c0,0.195,0.051,0.355,0.104,0.512h-0.104c-1.979,0-1.979,3.069,0,3.069h55.247&#10;&#9;&#9;&#9;&#9;c1.785,0,1.945-2.475,0.512-2.966v-46.783h3.645c1.281,0,1.721-1.278,1.343-2.185v-8.558c0-1.28-1.277-1.719-2.184-1.343h-19.907&#10;&#9;&#9;&#9;&#9;c4.49-0.549,8.714-1.604,12.482-4.897c4.698-4.105,5.604-9.059,12.979-9.721c7.128-0.64,9.169,7.991,9.482,13.226&#10;&#9;&#9;&#9;&#9;c0.118,1.966,3.188,1.979,3.069,0C635.449,104.008,632.245,96.446,623.379,95.756z M573.998,108.207&#10;&#9;&#9;&#9;&#9;c0.545-3.221,8.719,1.72,10.723,3.953c-0.22,0.057-0.452,0.095-0.665,0.161C579.904,112.615,573.264,112.527,573.998,108.207z&#10;&#9;&#9;&#9;&#9; M557.472,122.459v-5.947h20.446c-0.811,1.016-1.515,2.185-2.108,3.507c-0.354,0.788-0.631,1.605-0.858,2.44H557.472z&#10;&#9;&#9;&#9;&#9; M580.875,172.208h-18.646c0.053-0.157,0.104-0.317,0.104-0.512v-46.167h12.009c-0.19,1.369-0.303,2.75-0.396,4.1&#10;&#9;&#9;&#9;&#9;c-0.171,2.507-0.104,5.042-0.168,7.553c-0.048,1.864-2.134,8.326-4.813,3.829c-1.012-1.698-3.666-0.155-2.649,1.55&#10;&#9;&#9;&#9;&#9;c3.053,5.123,7.166,3.675,9.501-1.241c1.995-4.2,1.415-10.42,1.974-15.791h3.086V172.208z M578.287,122.459&#10;&#9;&#9;&#9;&#9;c0.471-1.996,1.251-3.756,2.588-5.091v5.091H578.287z M588.74,172.208h-4.796v-46.679h4.796V172.208z M588.74,122.459h-4.796&#10;&#9;&#9;&#9;&#9;v-5.947h4.796V122.459z M611.952,172.208H591.81v-46.679h20.143V172.208z M616.939,116.513v5.947h-25.13v-5.947H616.939z&#10;&#9;&#9;&#9;&#9; M596.144,108.305c-1.438,1.021-3,1.925-4.617,2.702c-0.355,0.027-0.717,0.049-1.06,0.086c-0.631,0.067-1.039,0.447-1.262,0.907&#10;&#9;&#9;&#9;&#9;c-0.02,0.007-0.039,0.014-0.059,0.021c-0.241-0.215-0.556-0.365-0.981-0.353c-0.067,0.002-0.128,0.015-0.193,0.017&#10;&#9;&#9;&#9;&#9;c-0.859-4.628-0.508-9.47,3.017-12.938c3.192-3.14,9.233-4.125,10.854,1.147C602.894,103.311,598.458,106.662,596.144,108.305z" transform="matrix(1, 0, 0, 1, 8.526512829121202e-14, 2.1316282072803006e-14)"/><g transform="matrix(1, 0, 0, 1, 8.526512829121202e-14, 2.1316282072803006e-14)">
				<path fill="#FF7886" d="M112.429,306.704c6.952,2.996,14.055,5.508,21.26,7.535c-5.495,5.717-11.41,11.188-17.726,16.363&#10;&#9;&#9;&#9;&#9;&#9;C114.314,322.604,113.138,314.622,112.429,306.704z"/>
				<path fill="#303E5C" d="M135.043,312.813c-0.185-0.236-0.429-0.441-0.8-0.545c-6.861-1.93-13.622-4.328-20.252-7.15&#10;&#9;&#9;&#9;&#9;&#9;c-0.124-0.236-0.304-0.455-0.625-0.605c-6.53-3.104-9.974-9.014-11.188-15.965c-0.34-1.947-3.298-1.119-2.96,0.816&#10;&#9;&#9;&#9;&#9;&#9;c1.206,6.898,4.665,13.02,10.575,16.662c0.661,8.178,1.822,16.43,3.49,24.705c-0.405,0.838,0.342,1.844,1.316,2.17&#10;&#9;&#9;&#9;&#9;&#9;c0.961,0.363,2.174,0.059,2.393-0.844c6.558-5.375,12.679-11.062,18.345-17.014C136.075,314.265,135.72,313.317,135.043,312.813&#10;&#9;&#9;&#9;&#9;&#9;z M116.301,328.136c-1.359-6.682-2.384-13.354-3.08-19.982c5.93,2.504,11.966,4.656,18.078,6.459&#10;&#9;&#9;&#9;&#9;&#9;C126.591,319.31,121.588,323.827,116.301,328.136z"/>
				<path fill="#80CDD7" d="M136.462,314.993c7.23,1.902,14.555,3.318,21.927,4.25c-4.562,6.469-9.568,12.76-15.006,18.83&#10;&#9;&#9;&#9;&#9;&#9;C140.605,330.415,138.299,322.706,136.462,314.993z"/>
				<path fill="#303E5C" d="M159.511,317.632c-0.214-0.205-0.484-0.371-0.864-0.42c-7.717-0.975-15.383-2.488-22.938-4.539&#10;&#9;&#9;&#9;&#9;&#9;c-1.019-0.277-1.722,0.377-1.901,1.152c-0.078,0.232-0.115,0.486-0.046,0.785c1.829,8.012,4.167,16.025,7.016,23.99&#10;&#9;&#9;&#9;&#9;&#9;c-0.273,0.891,0.604,1.771,1.606,1.947c0.994,0.217,2.139-0.27,2.221-1.195c5.647-6.297,10.825-12.832,15.523-19.559&#10;&#9;&#9;&#9;&#9;&#9;C160.738,318.915,160.251,318.032,159.511,317.632z M156.099,319.97c-3.937,5.346-8.188,10.559-12.74,15.611&#10;&#9;&#9;&#9;&#9;&#9;c-2.304-6.398-4.273-12.834-5.912-19.277C143.607,317.876,149.834,319.097,156.099,319.97z"/>
				<path fill="#80CDD7" d="M182.71,320.556c7.417-0.131,14.826-0.748,22.18-1.852c-2.641,7.465-5.749,14.875-9.323,22.189&#10;&#9;&#9;&#9;&#9;&#9;C190.832,334.274,186.542,327.479,182.71,320.556z"/>
				<path fill="#303E5C" d="M205.534,316.849c-0.261-0.139-0.566-0.227-0.947-0.168c-7.697,1.152-15.457,1.77-23.22,1.848&#10;&#9;&#9;&#9;&#9;&#9;c-1.048,0.008-1.542,0.83-1.502,1.623c-0.012,0.246,0.02,0.5,0.165,0.77c3.902,7.213,8.3,14.293,13.182,21.186&#10;&#9;&#9;&#9;&#9;&#9;c-0.021,0.934,1.058,1.545,2.067,1.441c1.013-0.062,1.978-0.838,1.807-1.752c3.714-7.59,6.926-15.283,9.629-23.031&#10;&#9;&#9;&#9;&#9;&#9;C207.065,317.753,206.356,317.034,205.534,316.849z M202.882,320.024c-2.341,6.213-5.011,12.383-8.012,18.48&#10;&#9;&#9;&#9;&#9;&#9;c-3.94-5.537-7.562-11.199-10.864-16.955C190.314,321.392,196.617,320.884,202.882,320.024z"/>
				<path fill="#FF7886" d="M160.365,319.481c7.379,0.844,14.802,1.203,22.218,1.076c-3.588,7.055-7.637,13.992-12.138,20.773&#10;&#9;&#9;&#9;&#9;&#9;C166.621,334.146,163.259,326.847,160.365,319.481z"/>
				<path fill="#303E5C" d="M183.463,318.804c-0.24-0.172-0.531-0.299-0.915-0.293c-7.763,0.133-15.532-0.273-23.251-1.219&#10;&#9;&#9;&#9;&#9;&#9;c-1.043-0.127-1.641,0.621-1.706,1.414c-0.045,0.242-0.046,0.498,0.063,0.783c2.928,7.664,6.362,15.26,10.296,22.738&#10;&#9;&#9;&#9;&#9;&#9;c-0.143,0.916,0.847,1.666,1.86,1.695c1.01,0.072,2.069-0.568,2.02-1.498c4.676-7.037,8.862-14.244,12.548-21.568&#10;&#9;&#9;&#9;&#9;&#9;C184.858,319.901,184.251,319.095,183.463,318.804z M180.425,321.603c-3.13,5.85-6.583,11.617-10.357,17.268&#10;&#9;&#9;&#9;&#9;&#9;c-3.177-6.008-6.026-12.094-8.548-18.234C167.803,321.308,174.114,321.63,180.425,321.603z"/>
				<path fill="#80CDD7" d="M226.542,313.997c7.197-2.064,14.29-4.613,21.23-7.648c-0.67,7.924-1.806,15.91-3.414,23.922&#10;&#9;&#9;&#9;&#9;&#9;C238.013,325.124,232.068,319.685,226.542,313.997z"/>
				<path fill="#303E5C" d="M260.127,288.948c-3.257,4.979-6.422,12.838-12.276,15.428c-0.274-0.049-0.571-0.047-0.899,0.098&#10;&#9;&#9;&#9;&#9;&#9;c-0.492,0.213-0.989,0.406-1.481,0.615c-0.054,0.01-0.104,0.029-0.157,0.037c-0.3,0.045-0.513,0.166-0.688,0.314&#10;&#9;&#9;&#9;&#9;&#9;c-6.525,2.738-13.173,5.07-19.919,6.949c-1.019,0.281-1.287,1.203-1.044,1.961c0.053,0.238,0.15,0.477,0.361,0.699&#10;&#9;&#9;&#9;&#9;&#9;c5.665,5.951,11.786,11.639,18.342,17.014c0.219,0.904,1.431,1.211,2.393,0.848c0.974-0.326,1.721-1.334,1.316-2.174&#10;&#9;&#9;&#9;&#9;&#9;c1.601-7.938,2.723-15.852,3.397-23.703c6.278-3.002,9.743-11.09,13.304-16.535C263.863,288.837,261.205,287.3,260.127,288.948z&#10;&#9;&#9;&#9;&#9;&#9; M243.058,328.146c-5.285-4.311-10.287-8.83-14.996-13.525c6.113-1.805,12.15-3.955,18.079-6.459&#10;&#9;&#9;&#9;&#9;&#9;C245.445,314.792,244.418,321.46,243.058,328.146z"/>
				<path fill="#FF7886" d="M204.564,318.755c7.355-1.09,14.657-2.662,21.855-4.721c-1.677,7.75-3.823,15.506-6.442,23.223&#10;&#9;&#9;&#9;&#9;&#9;C214.407,331.308,209.266,325.124,204.564,318.755z"/>
				<path fill="#303E5C" d="M226.824,312.106c-0.279-0.102-0.596-0.146-0.968-0.043c-7.534,2.156-15.183,3.773-22.889,4.852&#10;&#9;&#9;&#9;&#9;&#9;c-1.04,0.145-1.425,1.021-1.284,1.807c0.021,0.242,0.085,0.49,0.264,0.74c4.806,6.648,10.092,13.102,15.841,19.307&#10;&#9;&#9;&#9;&#9;&#9;c0.099,0.922,1.25,1.391,2.242,1.16c1.001-0.195,1.863-1.092,1.575-1.977c2.725-8.008,4.938-16.059,6.644-24.1&#10;&#9;&#9;&#9;&#9;&#9;C228.468,312.804,227.667,312.183,226.824,312.106z M224.585,315.604c-1.538,6.469-3.407,12.938-5.61,19.375&#10;&#9;&#9;&#9;&#9;&#9;c-4.637-4.982-8.971-10.125-12.995-15.406C212.233,318.601,218.445,317.278,224.585,315.604z"/>
			</g><path fill="#FDB151" d="M65.041,269.476c6.953,2.998,14.056,5.51,21.26,7.535c-5.495,5.719-11.409,11.188-17.726,16.367&#10;&#9;&#9;&#9;&#9;&#9;C66.926,285.378,65.75,277.396,65.041,269.476z" transform="matrix(1, 0, 0, 1, 1.1368683772161603e-13, 2.842170943040401e-14)"/><path fill="#303E5C" d="M87.655,275.587c-0.184-0.238-0.429-0.441-0.799-0.547c-6.862-1.928-13.622-4.328-20.252-7.148&#10;&#9;&#9;&#9;&#9;&#9;c-0.124-0.236-0.304-0.455-0.624-0.607c-6.53-3.102-9.974-9.012-11.188-15.963c-0.34-1.947-3.298-1.119-2.96,0.814&#10;&#9;&#9;&#9;&#9;&#9;c1.206,6.9,4.666,13.021,10.576,16.662c0.661,8.18,1.821,16.432,3.489,24.707c-0.404,0.838,0.343,1.844,1.316,2.17&#10;&#9;&#9;&#9;&#9;&#9;c0.961,0.363,2.175,0.059,2.393-0.846c6.558-5.375,12.679-11.062,18.345-17.012C88.687,277.038,88.332,276.091,87.655,275.587z&#10;&#9;&#9;&#9;&#9;&#9; M68.913,290.911c-1.359-6.686-2.384-13.355-3.08-19.984c5.93,2.504,11.966,4.656,18.079,6.459&#10;&#9;&#9;&#9;&#9;&#9;C79.203,282.083,74.201,286.601,68.913,290.911z" transform="matrix(1, 0, 0, 1, 1.1368683772161603e-13, 2.842170943040401e-14)"/><path fill="#80CDD7" d="M89.074,277.767c7.23,1.902,14.554,3.318,21.926,4.248c-4.562,6.471-9.567,12.762-15.005,18.83&#10;&#9;&#9;&#9;&#9;&#9;C93.217,293.187,90.911,285.479,89.074,277.767z" transform="matrix(1, 0, 0, 1, 1.1368683772161603e-13, 2.842170943040401e-14)"/><path fill="#303E5C" d="M112.123,280.405c-0.214-0.207-0.484-0.373-0.865-0.42c-7.717-0.975-15.382-2.488-22.938-4.539&#10;&#9;&#9;&#9;&#9;&#9;c-1.019-0.277-1.722,0.377-1.901,1.152c-0.078,0.232-0.115,0.486-0.046,0.785c1.829,8.012,4.167,16.025,7.016,23.988&#10;&#9;&#9;&#9;&#9;&#9;c-0.272,0.891,0.604,1.771,1.606,1.949c0.995,0.215,2.139-0.27,2.221-1.197c5.647-6.295,10.825-12.83,15.523-19.557&#10;&#9;&#9;&#9;&#9;&#9;C113.351,281.688,112.863,280.804,112.123,280.405z M108.71,282.743c-3.937,5.346-8.187,10.557-12.74,15.613&#10;&#9;&#9;&#9;&#9;&#9;c-2.303-6.402-4.273-12.838-5.912-19.279C96.219,280.649,102.446,281.87,108.71,282.743z" transform="matrix(1, 0, 0, 1, 1.1368683772161603e-13, 2.842170943040401e-14)"/><path fill="#80CDD7" d="M135.322,283.329c7.417-0.131,14.827-0.748,22.181-1.852c-2.641,7.465-5.749,14.875-9.323,22.189&#10;&#9;&#9;&#9;&#9;&#9;C143.444,297.048,139.154,290.253,135.322,283.329z" transform="matrix(1, 0, 0, 1, 1.1368683772161603e-13, 2.842170943040401e-14)"/><path fill="#303E5C" d="M158.146,279.622c-0.261-0.139-0.566-0.227-0.947-0.17c-7.697,1.154-15.458,1.771-23.221,1.848&#10;&#9;&#9;&#9;&#9;&#9;c-1.047,0.01-1.542,0.832-1.501,1.625c-0.012,0.244,0.02,0.5,0.165,0.77c3.903,7.213,8.3,14.293,13.183,21.186&#10;&#9;&#9;&#9;&#9;&#9;c-0.021,0.932,1.058,1.543,2.066,1.441c1.013-0.062,1.979-0.838,1.808-1.752c3.713-7.59,6.925-15.283,9.629-23.031&#10;&#9;&#9;&#9;&#9;&#9;C159.677,280.526,158.968,279.806,158.146,279.622z M155.495,282.798c-2.341,6.213-5.012,12.383-8.012,18.48&#10;&#9;&#9;&#9;&#9;&#9;c-3.94-5.537-7.562-11.199-10.864-16.955C142.927,284.165,149.229,283.657,155.495,282.798z" transform="matrix(1, 0, 0, 1, 1.1368683772161603e-13, 2.842170943040401e-14)"/><path fill="#FDB151" d="M112.977,282.253c7.379,0.846,14.803,1.205,22.218,1.078c-3.587,7.053-7.637,13.992-12.138,20.773&#10;&#9;&#9;&#9;&#9;&#9;C119.232,296.919,115.871,289.622,112.977,282.253z" transform="matrix(1, 0, 0, 1, 1.1368683772161603e-13, 2.842170943040401e-14)"/><path fill="#303E5C" d="M136.075,281.577c-0.24-0.174-0.53-0.299-0.914-0.293c-7.763,0.133-15.532-0.273-23.252-1.219&#10;&#9;&#9;&#9;&#9;&#9;c-1.043-0.127-1.641,0.621-1.706,1.414c-0.045,0.24-0.046,0.498,0.063,0.783c2.928,7.664,6.362,15.26,10.296,22.736&#10;&#9;&#9;&#9;&#9;&#9;c-0.143,0.918,0.847,1.666,1.86,1.697c1.01,0.072,2.07-0.57,2.02-1.5c4.676-7.035,8.862-14.24,12.548-21.566&#10;&#9;&#9;&#9;&#9;&#9;C137.47,282.673,136.863,281.868,136.075,281.577z M133.037,284.376c-3.131,5.852-6.584,11.617-10.357,17.268&#10;&#9;&#9;&#9;&#9;&#9;c-3.177-6.006-6.026-12.094-8.548-18.234C120.415,284.081,126.726,284.403,133.037,284.376z" transform="matrix(1, 0, 0, 1, 1.1368683772161603e-13, 2.842170943040401e-14)"/><path fill="#80CDD7" d="M179.154,276.771c7.196-2.064,14.29-4.615,21.23-7.65c-0.67,7.924-1.806,15.912-3.414,23.922&#10;&#9;&#9;&#9;&#9;&#9;C190.625,287.896,184.68,282.458,179.154,276.771z" transform="matrix(1, 0, 0, 1, 1.1368683772161603e-13, 2.842170943040401e-14)"/><path fill="#303E5C" d="M212.739,251.722c-3.256,4.979-6.422,12.836-12.275,15.428c-0.274-0.051-0.571-0.047-0.899,0.098&#10;&#9;&#9;&#9;&#9;&#9;c-0.492,0.213-0.989,0.404-1.48,0.615c-0.054,0.01-0.104,0.027-0.158,0.035c-0.299,0.045-0.512,0.166-0.688,0.316&#10;&#9;&#9;&#9;&#9;&#9;c-6.525,2.736-13.173,5.07-19.918,6.949c-1.019,0.281-1.288,1.203-1.045,1.961c0.053,0.238,0.15,0.477,0.361,0.699&#10;&#9;&#9;&#9;&#9;&#9;c5.665,5.951,11.786,11.639,18.342,17.014c0.219,0.904,1.431,1.211,2.394,0.846c0.974-0.326,1.72-1.332,1.315-2.17&#10;&#9;&#9;&#9;&#9;&#9;c1.601-7.939,2.723-15.854,3.398-23.705c6.278-3.002,9.743-11.092,13.304-16.537&#10;&#9;&#9;&#9;&#9;&#9;C216.476,251.608,213.817,250.073,212.739,251.722z M195.669,290.917c-5.284-4.309-10.287-8.828-14.996-13.525&#10;&#9;&#9;&#9;&#9;&#9;c6.113-1.803,12.149-3.955,18.078-6.457C198.057,277.565,197.03,284.233,195.669,290.917z" transform="matrix(1, 0, 0, 1, 1.1368683772161603e-13, 2.842170943040401e-14)"/><path fill="#FDB151" d="M157.176,281.526c7.355-1.09,14.657-2.66,21.855-4.721c-1.677,7.752-3.823,15.508-6.443,23.225&#10;&#9;&#9;&#9;&#9;&#9;C167.02,294.081,161.877,287.897,157.176,281.526z" transform="matrix(1, 0, 0, 1, 1.1368683772161603e-13, 2.842170943040401e-14)"/><path fill="#303E5C" d="M179.436,274.88c-0.279-0.104-0.597-0.148-0.968-0.043c-7.534,2.154-15.183,3.771-22.889,4.852&#10;&#9;&#9;&#9;&#9;&#9;c-1.04,0.145-1.425,1.021-1.285,1.805c0.021,0.244,0.085,0.492,0.264,0.742c4.807,6.648,10.092,13.102,15.841,19.305&#10;&#9;&#9;&#9;&#9;&#9;c0.099,0.926,1.25,1.393,2.242,1.16c1.001-0.193,1.863-1.09,1.575-1.975c2.725-8.008,4.938-16.059,6.644-24.102&#10;&#9;&#9;&#9;&#9;&#9;C181.08,275.575,180.28,274.956,179.436,274.88z M177.197,278.378c-1.538,6.469-3.406,12.936-5.609,19.373&#10;&#9;&#9;&#9;&#9;&#9;c-4.637-4.979-8.971-10.125-12.995-15.406C164.845,281.372,171.057,280.052,177.197,278.378z" transform="matrix(1, 0, 0, 1, 1.1368683772161603e-13, 2.842170943040401e-14)"/><g transform="matrix(1, 0, 0, 1, 8.526512829121202e-14, 2.1316282072803006e-14)">
				<path fill="#FCA7AD" d="M378.347,256.196c-5.751-9.556-11.308-14.624-22.444-16.305c-7.761-1.171-17.167,1.504-23.585,5.895&#10;&#9;&#9;&#9;&#9;&#9;c-11.37,5.897-13.495,23-10.352,33.901c3.888,13.473,16.33,28.598,30.475,32.172c-0.041,1.348-0.171,2.678-0.02,3.998&#10;&#9;&#9;&#9;&#9;&#9;c-0.681,1.211-1.149,2.578-1.68,3.828c-0.423,0.994,0.038,2.363,1.324,2.311c1.981-0.084,3.831-0.732,5.779-1.016&#10;&#9;&#9;&#9;&#9;&#9;c1.208-0.174,1.386-1.812,0.677-2.564c-1.915-2.027-2.521-4.529-3.059-7.188c-0.011-0.049-0.039-0.08-0.053-0.125&#10;&#9;&#9;&#9;&#9;&#9;c8.531-7.568,17.97-12.785,23.525-23.188C384.767,276.993,384.767,266.866,378.347,256.196z"/>
				<path fill="#303E5C" d="M384.933,268.315c-2.779-18.492-19.065-33.142-38.454-30.096c-18.302,2.875-30.938,18.514-28.077,37.299&#10;&#9;&#9;&#9;&#9;&#9;c1.41,9.27,5.374,16.094,11.562,22.949c3.709,4.111,9.115,10.041,14.907,12.4c0.038,0.02,0.081,0.029,0.12,0.045&#10;&#9;&#9;&#9;&#9;&#9;c0.801,0.318,3.821,1.564,4.465,1.916c0.758,0.412,1.53,0.756,2.327,1.014c-1.11,2.768-2.979,5.26-3.946,8.064&#10;&#9;&#9;&#9;&#9;&#9;c-0.424,1.23,0.835,2.039,1.887,1.887c1.532-0.219,3.072-0.361,4.612-0.51c-1.619,2.84-3.59,6.029-2.688,9.312&#10;&#9;&#9;&#9;&#9;&#9;c1.599,5.82,5.617,10.242,1.626,16.393c-5.938,9.154,3.143,18.77,1.342,28.805c-0.348,1.934,2.608,2.76,2.958,0.814&#10;&#9;&#9;&#9;&#9;&#9;c0.659-3.672,0.863-7.031,0.048-10.693c-1.348-6.07-5.567-11.273-1.696-17.377c1.5-2.367,3.574-5.584,2.823-8.586&#10;&#9;&#9;&#9;&#9;&#9;c-0.482-1.932-1.208-3.518-2.145-5.291c-2.494-4.721-0.98-9.07,1.199-13.316c0.068-0.135,0.082-0.264,0.112-0.395&#10;&#9;&#9;&#9;&#9;&#9;c0.863-0.045,1.725-0.01,2.567,0.268c1.212,0.404,2.534-1.16,1.732-2.254c-1.95-2.654-4.147-5.105-6.2-7.656&#10;&#9;&#9;&#9;&#9;&#9;C369.6,299.573,388.347,291.04,384.933,268.315z M357.517,319.907c-0.498,0.033-0.995,0.082-1.488,0.143&#10;&#9;&#9;&#9;&#9;&#9;c-1.424,0.172-2.851,0.309-4.274,0.457c0.773-1.547,1.686-3.043,2.439-4.602C355.291,317.247,356.415,318.565,357.517,319.907z&#10;&#9;&#9;&#9;&#9;&#9; M353.987,311.001c-0.232-0.033-0.459-0.016-0.68,0.051c-2.013-0.568-6.821-2.846-7.591-3.033&#10;&#9;&#9;&#9;&#9;&#9;c-5.473-1.334-10.192-8.137-13.584-11.721c-5.467-5.781-8.896-11.887-10.484-19.699c-3.913-19.238,10.476-35.136,29.459-35.583&#10;&#9;&#9;&#9;&#9;&#9;c19.019-0.45,31.249,16.261,31.075,33.98C382.012,292.438,364.8,300.224,353.987,311.001z"/>
				<path fill="#303E5C" d="M366.003,254.728c-1.372-1.432-3.54,0.742-2.17,2.17c6.762,7.051,5.11,16.912,2.292,25.363&#10;&#9;&#9;&#9;&#9;&#9;c-0.628,1.883,2.336,2.684,2.958,0.816C372.278,273.501,373.542,262.587,366.003,254.728z"/>
			</g><path fill="#FDB151" d="M427.848,231.567c-5.751-9.556-11.308-14.624-22.444-16.306c-7.76-1.17-17.167,1.505-23.585,5.894&#10;&#9;&#9;&#9;&#9;&#9;c-11.37,5.897-13.495,23-10.351,33.902c3.887,13.471,16.329,28.598,30.474,32.172c-0.041,1.348-0.171,2.676-0.02,3.996&#10;&#9;&#9;&#9;&#9;&#9;c-0.681,1.211-1.149,2.58-1.68,3.83c-0.423,0.994,0.039,2.363,1.324,2.309c1.981-0.084,3.831-0.73,5.779-1.014&#10;&#9;&#9;&#9;&#9;&#9;c1.208-0.174,1.386-1.814,0.678-2.564c-1.916-2.027-2.522-4.529-3.06-7.188c-0.01-0.049-0.039-0.08-0.052-0.127&#10;&#9;&#9;&#9;&#9;&#9;c8.53-7.566,17.969-12.785,23.524-23.186C434.268,252.364,434.268,242.238,427.848,231.567z" transform="matrix(1, 0, 0, 1, 1.1368683772161603e-13, 2.842170943040401e-14)"/><path fill="#303E5C" d="M434.434,243.687c-2.779-18.492-19.065-33.143-38.454-30.096c-18.302,2.875-30.938,18.513-28.077,37.299&#10;&#9;&#9;&#9;&#9;&#9;c1.41,9.27,5.374,16.092,11.562,22.949c3.71,4.111,9.115,10.041,14.907,12.4c0.038,0.02,0.081,0.027,0.12,0.045&#10;&#9;&#9;&#9;&#9;&#9;c0.801,0.318,3.822,1.564,4.465,1.914c0.759,0.412,1.53,0.758,2.327,1.016c-1.11,2.768-2.979,5.258-3.945,8.064&#10;&#9;&#9;&#9;&#9;&#9;c-0.425,1.23,0.834,2.037,1.887,1.887c1.531-0.219,3.072-0.361,4.611-0.51c-1.619,2.84-3.59,6.029-2.688,9.312&#10;&#9;&#9;&#9;&#9;&#9;c1.6,5.82,5.617,10.24,1.626,16.391c-5.938,9.156,3.143,18.771,1.342,28.807c-0.348,1.932,2.608,2.76,2.958,0.814&#10;&#9;&#9;&#9;&#9;&#9;c0.659-3.672,0.863-7.031,0.048-10.695c-1.347-6.068-5.567-11.273-1.696-17.375c1.5-2.367,3.574-5.584,2.823-8.586&#10;&#9;&#9;&#9;&#9;&#9;c-0.482-1.932-1.208-3.518-2.145-5.291c-2.493-4.721-0.979-9.07,1.199-13.316c0.069-0.135,0.082-0.264,0.112-0.395&#10;&#9;&#9;&#9;&#9;&#9;c0.863-0.045,1.725-0.01,2.567,0.268c1.212,0.404,2.534-1.16,1.732-2.254c-1.95-2.654-4.147-5.105-6.2-7.656&#10;&#9;&#9;&#9;&#9;&#9;C419.102,274.942,437.848,266.411,434.434,243.687z M407.018,295.276c-0.498,0.035-0.995,0.084-1.488,0.143&#10;&#9;&#9;&#9;&#9;&#9;c-1.424,0.174-2.851,0.309-4.274,0.457c0.773-1.545,1.687-3.041,2.44-4.6C404.792,292.618,405.916,293.937,407.018,295.276z&#10;&#9;&#9;&#9;&#9;&#9; M403.488,286.372c-0.232-0.033-0.459-0.016-0.68,0.051c-2.012-0.568-6.821-2.846-7.59-3.033&#10;&#9;&#9;&#9;&#9;&#9;c-5.474-1.336-10.193-8.137-13.584-11.721c-5.468-5.781-8.896-11.887-10.485-19.699c-3.913-19.238,10.476-35.136,29.46-35.584&#10;&#9;&#9;&#9;&#9;&#9;c19.018-0.45,31.248,16.262,31.074,33.98C431.513,267.81,414.301,275.595,403.488,286.372z" transform="matrix(1, 0, 0, 1, 1.1368683772161603e-13, 2.842170943040401e-14)"/><path fill="#303E5C" d="M415.504,230.099c-1.372-1.431-3.539,0.742-2.17,2.17c6.763,7.05,5.11,16.912,2.292,25.363&#10;&#9;&#9;&#9;&#9;&#9;c-0.628,1.883,2.336,2.684,2.958,0.816C421.779,248.87,423.043,237.958,415.504,230.099z" transform="matrix(1, 0, 0, 1, 1.1368683772161603e-13, 2.842170943040401e-14)"/><path fill="#80CDD7" d="M554.654,247.084c-6.017-0.17-12.786,5.585-7.706,11.024c0.395,0.422,0.881,0.506,1.331,0.404&#10;&#9;&#9;&#9;&#9;c0.937,0.438,2.48-0.379,2.288-1.801c-0.385-2.873,4.778-3.684,6.557-3.232c1.696,0.43,3.214,1.561,4.215,3.012&#10;&#9;&#9;&#9;&#9;c0.382,1.795-0.095,4.01-1.448,6.652c-1.55,1.238-3.272,2.158-5.167,2.76c-0.207,0.082-0.378,0.195-0.518,0.328h-54.067&#10;&#9;&#9;&#9;&#9;c-0.466-0.268-0.967-0.229-1.38,0h-0.075c-1.557,0-1.87,1.881-0.978,2.691c0.038,0.121,0.105,0.23,0.168,0.342&#10;&#9;&#9;&#9;&#9;c-0.685,0.879-0.309,2.529,1.146,2.529h51.553c0.157,0.348,13.424-1.646,14.811-7.371c0.722-1.322,1.198-2.936,1.353-4.906&#10;&#9;&#9;&#9;&#9;C567.36,251.573,562.407,247.303,554.654,247.084z" transform="matrix(1, 0, 0, 1, 8.526512829121202e-14, 2.1316282072803006e-14)"/><path fill="#FDB151" d="M511.914,269.372c-0.364-1-0.649-2.129-1.449-2.883c-0.261-0.244-0.543-0.344-0.826-0.385&#10;&#9;&#9;&#9;&#9;c-0.25-0.207-0.556-0.352-0.931-0.352c-0.788,0-1.599,0.697-1.534,1.533c0.119,1.559,1.119,2.539,2.176,3.58&#10;&#9;&#9;&#9;&#9;C510.387,271.886,512.463,270.872,511.914,269.372z" transform="matrix(1, 0, 0, 1, 8.526512829121202e-14, 2.1316282072803006e-14)"/><path fill="#FDB151" d="M528.891,269.757c-0.494-1.238-1.304-2.174-2.072-3.244c-0.463-0.645-1.242-0.947-1.981-0.592&#10;&#9;&#9;&#9;&#9;c-0.569-0.283-1.326-0.166-1.771,0.281c-0.623,0.623-0.547,1.537,0,2.17c0.729,0.842,1.335,1.785,2.11,2.59&#10;&#9;&#9;&#9;&#9;c0.406,0.422,0.902,0.516,1.356,0.406c0.348,0.277,0.782,0.414,1.287,0.275C528.559,271.44,529.202,270.534,528.891,269.757z" transform="matrix(1, 0, 0, 1, 8.526512829121202e-14, 2.1316282072803006e-14)"/><path fill="#FDB151" d="M547.008,268.503c-0.631-0.559-1.391-1.205-1.716-2.008c-0.312-0.775-1.01-1.312-1.887-1.072&#10;&#9;&#9;&#9;&#9;c-0.339,0.094-0.589,0.305-0.78,0.559c-0.882,0.26-1.556,1.193-0.904,2.176c0.493,0.744,1.138,1.369,1.631,2.109&#10;&#9;&#9;&#9;&#9;c0.466,0.703,1.228,0.844,1.847,0.617C546.635,271.614,548.377,269.716,547.008,268.503z" transform="matrix(1, 0, 0, 1, 8.526512829121202e-14, 2.1316282072803006e-14)"/><path fill="#FDB151" d="M563.91,265.382c-0.172-0.27-0.416-0.504-0.794-0.631c-0.874-0.289-1.758-0.514-2.677-0.529&#10;&#9;&#9;&#9;&#9;c-0.881-0.684-2.533-0.309-2.527,1.146c0.004,1.033,0.809,1.541,1.64,1.9c0.358,0.223,0.734,0.406,1.165,0.516&#10;&#9;&#9;&#9;&#9;c0.199,0.051,0.401,0.07,0.605,0.1c0.553,0.145,1.119,0.248,1.674,0.266C564.534,268.198,564.967,266.167,563.91,265.382z" transform="matrix(1, 0, 0, 1, 8.526512829121202e-14, 2.1316282072803006e-14)"/><path fill="#FDB151" d="M561.118,249.231c-0.274-0.789-1.04-1.307-1.887-1.072c-0.057,0.016-0.102,0.057-0.156,0.08&#10;&#9;&#9;&#9;&#9;c-0.076,0.008-0.147-0.006-0.228,0.016c-0.754,0.207-1.363,1.102-1.071,1.887c0.348,0.936,0.277,1.91,0.246,2.887&#10;&#9;&#9;&#9;&#9;c-0.014,0.148-0.019,0.297-0.014,0.447c0.067,1.973,3.05,1.982,3.069,0c-0.02-0.588,0.116-1.127,0.21-1.705&#10;&#9;&#9;&#9;&#9;C561.427,250.905,561.41,250.065,561.118,249.231z" transform="matrix(1, 0, 0, 1, 8.526512829121202e-14, 2.1316282072803006e-14)"/><path fill="#FDB151" d="M549.639,250.618c-0.387-0.121-0.776-0.234-1.162-0.359c-0.163-0.055-0.323-0.113-0.483-0.172&#10;&#9;&#9;&#9;&#9;c0.23,0.086-0.189-0.111-0.24-0.143c-1.668-1.08-3.204,1.578-1.55,2.648c0.54,0.35,1.191,0.543,1.801,0.734&#10;&#9;&#9;&#9;&#9;c0.272,0.086,0.545,0.166,0.817,0.25c0.132,0.041,0.263,0.084,0.394,0.129c0.037,0.014,0.026,0.006,0.038,0.008&#10;&#9;&#9;&#9;&#9;c0.921,0.445,2.27,0.029,2.233-1.295C551.456,251.294,550.553,250.905,549.639,250.618z" transform="matrix(1, 0, 0, 1, 8.526512829121202e-14, 2.1316282072803006e-14)"/><path fill="#303E5C" d="M557.202,245.098c-6.146-0.853-14.053,0.768-14.543,8.092c-0.182,2.689,1.07,6.406,3.924,7.191&#10;&#9;&#9;&#9;&#9;c2.524,0.695,4.925-0.523,5.375-2.801c0.336-0.516-0.325-2.238-0.273-2.33c0.01-0.014,0.621-0.41,1.125-0.463&#10;&#9;&#9;&#9;&#9;c9.719-1.029,6.198,10.188-0.871,8.814c0,0-0.716,0.27-2.271,0.07h-51.668c-0.908-0.42-2.239,0.004-2.239,1.312v1.15h-6.043&#10;&#9;&#9;&#9;&#9;v5.947h6.043v0.574c0,1.609,2.007,1.887,2.765,0.879h55.252C572.342,275.624,575.456,247.633,557.202,245.098z M546.838,256.683&#10;&#9;&#9;&#9;&#9;c-0.167-0.488-0.377-1.107-0.525-1.771c0.543,0.168,1.09,0.326,1.633,0.498c0.009,0.32,0.045,0.646,0.139,0.979&#10;&#9;&#9;&#9;&#9;C548.15,256.534,547.285,257.132,546.838,256.683z M549.101,252.554c-0.844-0.256-1.682-0.537-2.531-0.773&#10;&#9;&#9;&#9;&#9;c0.115-0.223,0.262-0.438,0.433-0.648c0.061,0.01,0.104,0.039,0.168,0.041c0.879,0.033,1.774,0.396,2.604,0.852&#10;&#9;&#9;&#9;&#9;C549.538,252.192,549.295,252.354,549.101,252.554z M553.333,250.872c-0.131-0.205-0.288-0.395-0.496-0.545&#10;&#9;&#9;&#9;&#9;c-0.653-0.475-1.39-0.896-2.155-1.26c0.794-0.164,1.59-0.252,2.268-0.314c0.917-0.086,1.854-0.1,2.783-0.037&#10;&#9;&#9;&#9;&#9;c0.013,0.094-0.002,0.176,0.029,0.275c0.221,0.693,0.383,1.4,0.524,2.111C555.316,250.89,554.317,250.796,553.333,250.872z&#10;&#9;&#9;&#9;&#9; M560.726,250.036c-0.069,0.168-0.123,0.348-0.127,0.561c-0.019,0.842-0.189,1.633-0.434,2.406&#10;&#9;&#9;&#9;&#9;c-0.144-0.127-0.269-0.271-0.423-0.387c-0.02-0.016-0.045-0.023-0.064-0.039c-0.209-1.08-0.382-2.166-0.637-3.232&#10;&#9;&#9;&#9;&#9;C559.623,249.53,560.182,249.767,560.726,250.036z M498.829,269.761v-2.27h5.966c0.342,0.674,0.67,1.475,1.064,2.234&#10;&#9;&#9;&#9;&#9;c-3.607-0.004-5.867-0.008-5.867-0.008C499.567,269.737,499.185,269.751,498.829,269.761z M509.918,269.729&#10;&#9;&#9;&#9;&#9;c-0.177-0.248-0.423-0.463-0.802-0.566c0.259,0.07,0.064,0.031-0.038-0.107c-0.271-0.365-0.486-0.775-0.698-1.178&#10;&#9;&#9;&#9;&#9;c-0.065-0.127-0.124-0.258-0.186-0.387h2.509c0.326,0.795,0.796,1.518,1.265,2.242&#10;&#9;&#9;&#9;&#9;C511.261,269.731,510.58,269.731,509.918,269.729z M515.53,269.737c-0.4-0.775-0.945-1.494-1.407-2.246h6.276&#10;&#9;&#9;&#9;&#9;c0.241,0.789,0.572,1.537,0.964,2.254C519.352,269.743,517.396,269.739,515.53,269.737z M524.915,269.751&#10;&#9;&#9;&#9;&#9;c-0.457-0.736-0.907-1.475-1.256-2.26h3.808c0,0.004-0.001,0.008,0,0.012c0.17,0.791,0.465,1.537,0.824,2.252&#10;&#9;&#9;&#9;&#9;C527.161,269.755,526.036,269.753,524.915,269.751z M531.847,269.761c-0.484-0.711-0.894-1.461-1.177-2.27h8.685&#10;&#9;&#9;&#9;&#9;c0.008,0.037-0.005,0.068,0.006,0.107c0.19,0.742,0.428,1.465,0.688,2.178C537.432,269.771,534.661,269.767,531.847,269.761z&#10;&#9;&#9;&#9;&#9; M543.318,269.782c-0.001-0.004-0.001-0.006-0.003-0.01c-0.326-0.736-0.572-1.506-0.793-2.281h2.626&#10;&#9;&#9;&#9;&#9;c0.246,0.848,0.688,1.588,1.191,2.297C545.376,269.786,544.363,269.784,543.318,269.782z M557.092,269.833&#10;&#9;&#9;&#9;&#9;c-0.039-0.012-2.754-0.023-6.973-0.035c-0.545-0.742-1.215-1.486-1.668-2.307h4.373c0.17,0,0.299-0.057,0.444-0.09&#10;&#9;&#9;&#9;&#9;c0.677,0.039,1.349-0.008,2.008-0.117c0.185,0.4,0.533,0.721,0.981,0.906c0.991,0.412,1.92,0.875,2.869,1.271&#10;&#9;&#9;&#9;&#9;C558.473,269.653,557.79,269.776,557.092,269.833z M562.663,267.401c-0.141-0.047-0.281-0.096-0.435-0.115&#10;&#9;&#9;&#9;&#9;c-1.234-0.154-2.402-0.73-3.547-1.301c0.412-0.26,0.811-0.545,1.183-0.871c0.129,0.076,0.251,0.158,0.422,0.199&#10;&#9;&#9;&#9;&#9;c1.207,0.297,2.438,0.502,3.661,0.336C563.59,266.319,563.155,266.899,562.663,267.401z M563.932,262.546&#10;&#9;&#9;&#9;&#9;c-0.676,0.195-1.35,0.127-2.02-0.008c1.062-2.02,1.131-4.426,0.347-6.508c0.53-1.273,1.007-2.529,1.245-3.867&#10;&#9;&#9;&#9;&#9;c2.265,2.678,2.205,7.113,1.48,10.48C564.691,262.493,564.344,262.427,563.932,262.546z" transform="matrix(1, 0, 0, 1, 8.526512829121202e-14, 2.1316282072803006e-14)"/><path fill="#FCA7AD" d="M586.105,258.724c-5.595,2.221-9.54,10.184-2.725,13.174c0.529,0.23,1.011,0.115,1.384-0.154&#10;&#9;&#9;&#9;&#9;c1.032,0.031,2.128-1.328,1.391-2.559c-1.49-2.488,2.933-5.273,4.746-5.561c1.728-0.275,3.568,0.164,5.062,1.102&#10;&#9;&#9;&#9;&#9;c1.059,1.498,1.497,3.723,1.297,6.686c-0.934,1.748-2.153,3.273-3.656,4.574c-0.157,0.158-0.27,0.33-0.346,0.506l-49.67,21.359&#10;&#9;&#9;&#9;&#9;c-0.533-0.061-0.979,0.17-1.268,0.545l-0.068,0.029c-1.432,0.615-0.977,2.467,0.164,2.859c0.083,0.094,0.188,0.168,0.29,0.246&#10;&#9;&#9;&#9;&#9;c-0.282,1.078,0.716,2.447,2.053,1.871l47.359-20.365c0.282,0.258,11.683-6.814,10.693-12.623&#10;&#9;&#9;&#9;&#9;c0.141-1.498-0.058-3.168-0.694-5.039C599.552,257.829,593.314,255.862,586.105,258.724z" transform="matrix(1, 0, 0, 1, 8.526512829121202e-14, 2.1316282072803006e-14)"/><path fill="#FDB151" d="M555.646,296.083c-0.729-0.773-1.438-1.699-2.471-2.076c-0.336-0.121-0.635-0.102-0.91-0.027&#10;&#9;&#9;&#9;&#9;c-0.313-0.092-0.65-0.104-0.995,0.045c-0.724,0.311-1.193,1.273-0.804,2.016c0.726,1.385,2.032,1.891,3.413,2.428&#10;&#9;&#9;&#9;&#9;C555.236,298.995,556.742,297.245,555.646,296.083z" transform="matrix(1, 0, 0, 1, 8.526512829121202e-14, 2.1316282072803006e-14)"/><path fill="#FDB151" d="M571.394,289.729c-0.943-0.941-2.057-1.482-3.185-2.162c-0.681-0.408-1.518-0.379-2.054,0.24&#10;&#9;&#9;&#9;&#9;c-0.636-0.035-1.284,0.371-1.517,0.957c-0.327,0.818,0.104,1.631,0.857,1.994c1.002,0.486,1.932,1.113,2.961,1.547&#10;&#9;&#9;&#9;&#9;c0.54,0.227,1.033,0.117,1.406-0.162c0.429,0.115,0.883,0.07,1.292-0.256C571.754,291.409,571.988,290.321,571.394,289.729z" transform="matrix(1, 0, 0, 1, 8.526512829121202e-14, 2.1316282072803006e-14)"/><path fill="#FDB151" d="M587.543,281.423c-0.801-0.266-1.754-0.559-2.369-1.168c-0.596-0.588-1.448-0.807-2.158-0.24&#10;&#9;&#9;&#9;&#9;c-0.274,0.221-0.42,0.514-0.496,0.822c-0.708,0.586-0.958,1.711,0.029,2.355c0.747,0.488,1.586,0.809,2.331,1.295&#10;&#9;&#9;&#9;&#9;c0.706,0.461,1.461,0.289,1.939-0.164C588.429,284.427,589.28,281.997,587.543,281.423z" transform="matrix(1, 0, 0, 1, 8.526512829121202e-14, 2.1316282072803006e-14)"/><path fill="#FDB151" d="M601.837,271.878c-0.265-0.18-0.581-0.299-0.979-0.266c-0.917,0.078-1.817,0.221-2.667,0.57&#10;&#9;&#9;&#9;&#9;c-1.081-0.279-2.449,0.717-1.869,2.053c0.41,0.947,1.35,1.096,2.257,1.098c0.417,0.062,0.835,0.082,1.272,0.014&#10;&#9;&#9;&#9;&#9;c0.204-0.033,0.397-0.094,0.597-0.148c0.564-0.086,1.125-0.215,1.643-0.416C603.521,274.218,603.117,272.181,601.837,271.878z" transform="matrix(1, 0, 0, 1, 8.526512829121202e-14, 2.1316282072803006e-14)"/><path fill="#FDB151" d="M592.892,258.144c-0.563-0.617-1.47-0.789-2.156-0.24c-0.047,0.037-0.07,0.094-0.112,0.135&#10;&#9;&#9;&#9;&#9;c-0.066,0.039-0.139,0.053-0.203,0.104c-0.609,0.49-0.816,1.553-0.238,2.158c0.688,0.723,1.009,1.645,1.365,2.555&#10;&#9;&#9;&#9;&#9;c0.047,0.143,0.103,0.281,0.165,0.416c0.841,1.785,3.585,0.617,2.819-1.213c-0.25-0.531-0.337-1.082-0.481-1.648&#10;&#9;&#9;&#9;&#9;C593.837,259.56,593.491,258.796,592.892,258.144z" transform="matrix(1, 0, 0, 1, 8.526512829121202e-14, 2.1316282072803006e-14)"/><path fill="#FDB151" d="M582.894,263.952c-0.402,0.041-0.806,0.092-1.209,0.129c-0.171,0.016-0.342,0.025-0.513,0.033&#10;&#9;&#9;&#9;&#9;c0.246-0.012-0.217-0.027-0.275-0.037c-1.959-0.332-2.32,2.717-0.378,3.047c0.634,0.107,1.309,0.027,1.943-0.037&#10;&#9;&#9;&#9;&#9;c0.285-0.027,0.567-0.062,0.851-0.094c0.138-0.014,0.273-0.025,0.412-0.037c0.039-0.002,0.026-0.006,0.039-0.008&#10;&#9;&#9;&#9;&#9;c1.021,0.045,2.096-0.869,1.539-2.07C584.832,263.854,583.847,263.856,582.894,263.952z" transform="matrix(1, 0, 0, 1, 8.526512829121202e-14, 2.1316282072803006e-14)"/><path fill="#303E5C" d="M587.661,255.894c-5.982,1.645-12.606,6.256-10.162,13.18c0.895,2.543,3.513,5.461,6.444,5.055&#10;&#9;&#9;&#9;&#9;c2.594-0.357,4.317-2.424,3.832-4.695c0.104-0.605-1.183-1.928-1.172-2.031c0.004-0.018,0.409-0.623,0.851-0.871&#10;&#9;&#9;&#9;&#9;c8.521-4.785,9.72,6.91,2.683,8.441c0,0-0.553,0.531-2.059,0.963l-47.468,20.41c-0.999-0.027-2.055,0.887-1.537,2.09l0.454,1.057&#10;&#9;&#9;&#9;&#9;l-5.552,2.387l2.349,5.463l5.551-2.387l0.229,0.529c0.635,1.479,2.589,0.939,2.888-0.285l50.757-21.826&#10;&#9;&#9;&#9;&#9;C613.629,277.956,605.433,251.013,587.661,255.894z M582.716,270.63c-0.345-0.383-0.782-0.869-1.181-1.42&#10;&#9;&#9;&#9;&#9;c0.564-0.061,1.13-0.131,1.696-0.186c0.135,0.289,0.297,0.576,0.514,0.842C583.863,269.974,583.305,270.866,582.716,270.63z&#10;&#9;&#9;&#9;&#9; M583.164,265.942c-0.877,0.098-1.757,0.172-2.631,0.289c0.019-0.25,0.067-0.506,0.143-0.766c0.057-0.016,0.109-0.006,0.17-0.029&#10;&#9;&#9;&#9;&#9;c0.819-0.316,1.786-0.338,2.729-0.246C583.423,265.438,583.264,265.683,583.164,265.942z M586.388,262.728&#10;&#9;&#9;&#9;&#9;c-0.199-0.137-0.42-0.25-0.67-0.305c-0.788-0.178-1.631-0.275-2.479-0.309c0.666-0.465,1.362-0.857,1.959-1.184&#10;&#9;&#9;&#9;&#9;c0.81-0.441,1.665-0.824,2.543-1.133c0.05,0.08,0.068,0.162,0.137,0.24c0.477,0.551,0.904,1.137,1.316,1.734&#10;&#9;&#9;&#9;&#9;C588.219,261.96,587.263,262.269,586.388,262.728z M592.85,259.038c0.003,0.182,0.024,0.367,0.105,0.566&#10;&#9;&#9;&#9;&#9;c0.314,0.779,0.47,1.574,0.551,2.379c-0.183-0.059-0.354-0.143-0.541-0.188c-0.023-0.006-0.051-0.004-0.074-0.01&#10;&#9;&#9;&#9;&#9;c-0.619-0.91-1.207-1.838-1.862-2.719C591.636,259.009,592.242,259.005,592.85,259.038z M543.778,301.608l-0.896-2.084&#10;&#9;&#9;&#9;&#9;l5.48-2.357c0.58,0.484,1.197,1.09,1.859,1.633c-3.314,1.42-5.392,2.311-5.392,2.311&#10;&#9;&#9;&#9;&#9;C544.448,301.296,544.101,301.46,543.778,301.608z M553.953,297.2c-0.261-0.158-0.571-0.258-0.961-0.203&#10;&#9;&#9;&#9;&#9;c0.267-0.037,0.072,0.002-0.076-0.084c-0.395-0.229-0.754-0.52-1.107-0.807c-0.109-0.09-0.216-0.188-0.322-0.281l2.304-0.992&#10;&#9;&#9;&#9;&#9;c0.614,0.602,1.331,1.08,2.047,1.561C555.188,296.671,554.562,296.94,553.953,297.2z M559.113,294.991&#10;&#9;&#9;&#9;&#9;c-0.675-0.555-1.46-1-2.181-1.508l5.766-2.48c0.533,0.631,1.133,1.186,1.775,1.691&#10;&#9;&#9;&#9;&#9;C562.624,293.485,560.827,294.257,559.113,294.991z M567.739,291.296c-0.712-0.496-1.416-0.996-2.047-1.58l3.499-1.504&#10;&#9;&#9;&#9;&#9;c0.002,0.002,0.002,0.006,0.005,0.01c0.468,0.66,1.034,1.23,1.646,1.744C569.805,290.411,568.769,290.854,567.739,291.296z&#10;&#9;&#9;&#9;&#9; M574.11,288.567c-0.726-0.463-1.396-0.99-1.977-1.621l7.978-3.43c0.022,0.031,0.023,0.064,0.048,0.096&#10;&#9;&#9;&#9;&#9;c0.469,0.605,0.971,1.176,1.492,1.729C579.246,286.37,576.698,287.46,574.11,288.567z M584.658,284.054&#10;&#9;&#9;&#9;&#9;c-0.003-0.002-0.003-0.004-0.006-0.006c-0.591-0.549-1.121-1.158-1.63-1.783l2.412-1.039c0.561,0.682,1.259,1.189,2.002,1.641&#10;&#9;&#9;&#9;&#9;C586.551,283.245,585.618,283.644,584.658,284.054z M597.331,278.659c-0.041,0.006-2.539,1.066-6.419,2.723&#10;&#9;&#9;&#9;&#9;c-0.795-0.467-1.704-0.885-2.443-1.459l4.019-1.729c0.154-0.066,0.25-0.17,0.371-0.258c0.638-0.232,1.236-0.539,1.799-0.9&#10;&#9;&#9;&#9;&#9;c0.326,0.295,0.774,0.451,1.26,0.445c1.072-0.014,2.109,0.045,3.137,0.035C598.529,277.948,597.949,278.331,597.331,278.659z&#10;&#9;&#9;&#9;&#9; M601.489,274.226c-0.148,0.012-0.297,0.023-0.445,0.066c-1.195,0.346-2.495,0.277-3.771,0.207&#10;&#9;&#9;&#9;&#9;c0.275-0.402,0.528-0.822,0.741-1.27c0.148,0.02,0.294,0.045,0.468,0.018c1.225-0.205,2.438-0.502,3.497-1.139&#10;&#9;&#9;&#9;&#9;C601.912,272.864,601.743,273.569,601.489,274.226z M600.735,269.263c-0.544,0.447-1.188,0.65-1.856,0.791&#10;&#9;&#9;&#9;&#9;c0.177-2.273-0.711-4.512-2.253-6.115c-0.017-1.377-0.074-2.721-0.384-4.045c3.139,1.566,4.835,5.666,5.501,9.043&#10;&#9;&#9;&#9;&#9;C601.413,268.915,601.066,268.991,600.735,269.263z" transform="matrix(1, 0, 0, 1, 8.526512829121202e-14, 2.1316282072803006e-14)"/><path fill="#303E5C" d="M470.667,64c-0.001,0.503-0.013,0.907-0.374,1.293c-0.88,0.94,0.531,2.358,1.414,1.414&#10;&#9;&#9;&#9;c0.732-0.783,0.958-1.658,0.96-2.707C472.669,62.71,470.669,62.71,470.667,64z" transform="matrix(1, 0, 0, 1, 5.684341886080802e-14, 1.4210854715202004e-14)"/><path fill="#303E5C" d="M571.667,207.667c-1.29,0-1.29,2,0,2S572.957,207.667,571.667,207.667z" transform="matrix(1, 0, 0, 1, 5.684341886080802e-14, 1.4210854715202004e-14)"/><path fill="#303E5C" d="M496.333,228.333c-1.29,0-1.29,2,0,2S497.623,228.333,496.333,228.333z" transform="matrix(1, 0, 0, 1, 5.684341886080802e-14, 1.4210854715202004e-14)"/><path fill="#303E5C" d="M281,192.333c-1.29,0-1.29,2,0,2S282.29,192.333,281,192.333z" transform="matrix(1, 0, 0, 1, 5.684341886080802e-14, 1.4210854715202004e-14)"/><path fill="#303E5C" d="M187.041,201.293c-0.222-0.222-0.445-0.444-0.667-0.667c-0.913-0.913-2.327,0.502-1.414,1.414&#10;&#9;&#9;&#9;c0.222,0.222,0.445,0.444,0.667,0.667C186.54,203.62,187.954,202.205,187.041,201.293z" transform="matrix(1, 0, 0, 1, 5.684341886080802e-14, 1.4210854715202004e-14)"/><path fill="#303E5C" d="M309.894,267.479c-0.284-0.284-0.569-0.569-0.853-0.854c-0.913-0.913-2.327,0.501-1.414,1.414&#10;&#9;&#9;&#9;c0.222,0.222,0.444,0.444,0.667,0.667l0,0c0.062,0.062,0.124,0.124,0.187,0.187C309.392,269.807,310.806,268.393,309.894,267.479z&#10;&#9;&#9;&#9;" transform="matrix(1, 0, 0, 1, 5.684341886080802e-14, 1.4210854715202004e-14)"/><path fill="#303E5C" d="M150.333,409.667h-0.667c-1.29,0-1.29,2,0,2h0.667C151.623,411.667,151.623,409.667,150.333,409.667z" transform="matrix(1, 0, 0, 1, 5.684341886080802e-14, 1.4210854715202004e-14)"/><path fill="#303E5C" d="M41,343c-1.29,0-1.29,2,0,2S42.29,343,41,343z" transform="matrix(1, 0, 0, 1, 5.684341886080802e-14, 1.4210854715202004e-14)"/><path fill="#303E5C" d="M65.707,149.293c-0.627-0.626-1.136-0.958-2.041-0.959c-1.29-0.002-1.29,1.998,0,2&#10;&#9;&#9;&#9;c0.084,0,0.169,0.002,0.253,0.004c0.002,0.002,0.004,0.004,0.006,0.006c-0.023,0.007-0.003,0.014,0.01,0.011&#10;&#9;&#9;&#9;c0.012,0.011,0.008,0.011,0.026,0.027c0.114,0.104,0.221,0.216,0.331,0.325C65.207,151.619,66.621,150.205,65.707,149.293z" transform="matrix(1, 0, 0, 1, 5.684341886080802e-14, 1.4210854715202004e-14)"/><path fill="#303E5C" d="M181.395,53.731c-0.413,0.128-0.728,0.463-0.728,0.936c0,0.517,0.456,1.037,1,1&#10;&#9;&#9;&#9;c0.936-0.063,1.645-0.704,1.667-1.667C183.361,52.812,181.687,52.734,181.395,53.731z" transform="matrix(1, 0, 0, 1, 5.684341886080802e-14, 1.4210854715202004e-14)"/><path fill="#303E5C" d="M374.333,60.333h-0.666c-1.29,0-1.29,2,0,2h0.666C375.623,62.333,375.623,60.333,374.333,60.333z" transform="matrix(1, 0, 0, 1, 5.684341886080802e-14, 1.4210854715202004e-14)"/><path fill="#303E5C" d="M241,153.667c-1.29,0-1.29,2,0,2S242.29,153.667,241,153.667z" transform="matrix(1, 0, 0, 1, 5.684341886080802e-14, 1.4210854715202004e-14)"/><path fill="#303E5C" d="M357.04,204.626c-0.222-0.222-0.444-0.445-0.666-0.667c-0.912-0.914-2.326,0.501-1.414,1.414&#10;&#9;&#9;&#9;c0.222,0.222,0.444,0.445,0.666,0.667C356.538,206.954,357.952,205.54,357.04,204.626z" transform="matrix(1, 0, 0, 1, 5.684341886080802e-14, 1.4210854715202004e-14)"/><path fill="#303E5C" d="M227,374.333c-0.544-0.038-1,0.483-1,1c0,0.447,0.28,0.775,0.659,0.919c0.001,0.01,0.001,0.01,0.002,0.021&#10;&#9;&#9;&#9;c0.008,0.131,0.005,0.263,0.005,0.395c0.002,1.29,2.002,1.29,2,0C228.665,375.502,228.337,374.427,227,374.333z" transform="matrix(1, 0, 0, 1, 5.684341886080802e-14, 1.4210854715202004e-14)"/><path fill="#303E5C" d="M403.667,397.667c-1.29,0-1.29,2,0,2S404.957,397.667,403.667,397.667z" transform="matrix(1, 0, 0, 1, 5.684341886080802e-14, 1.4210854715202004e-14)"/><path fill="#303E5C" d="M468.333,329c-1.29,0-1.29,2,0,2S469.623,329,468.333,329z" transform="matrix(1, 0, 0, 1, 5.684341886080802e-14, 1.4210854715202004e-14)"/><path fill="#303E5C" d="M385,330.333c-1.29,0-1.29,2,0,2S386.29,330.333,385,330.333z" transform="matrix(1, 0, 0, 1, 5.684341886080802e-14, 1.4210854715202004e-14)"/><path fill="#303E5C" d="M485,135.667h-0.667c-1.29,0-1.29,2,0,2H485C486.29,137.667,486.29,135.667,485,135.667z" transform="matrix(1, 0, 0, 1, 5.684341886080802e-14, 1.4210854715202004e-14)"/><path fill="#303E5C" d="M569.276,45.057c-0.277-0.99-1.945-0.908-1.943,0.277c0.001,0.45,0.021,0.932,0.36,1.272&#10;&#9;&#9;&#9;c0.36,0.36,0.826,0.393,1.307,0.394C570.185,47.002,570.268,45.333,569.276,45.057z" transform="matrix(1, 0, 0, 1, 5.684341886080802e-14, 1.4210854715202004e-14)"/><path fill="#303E5C" d="M667.395,173.731c-0.413,0.129-0.728,0.464-0.728,0.936c0,0.517,0.456,1.037,1,1&#10;&#9;&#9;&#9;c0.936-0.064,1.644-0.704,1.666-1.667C669.361,172.812,667.688,172.734,667.395,173.731z" transform="matrix(1, 0, 0, 1, 5.684341886080802e-14, 1.4210854715202004e-14)"/><path fill="#303E5C" d="M565.667,356.333c-1.29,0-1.29,2,0,2S566.957,356.333,565.667,356.333z" transform="matrix(1, 0, 0, 1, 5.684341886080802e-14, 1.4210854715202004e-14)"/><path fill="#303E5C" d="M637.333,278v0.667c0,1.29,2,1.29,2,0V278C639.333,276.71,637.333,276.71,637.333,278z" transform="matrix(1, 0, 0, 1, 5.684341886080802e-14, 1.4210854715202004e-14)"/><path fill="#303E5C" d="M284.667,406v0.667c0,1.29,2,1.29,2,0V406C286.667,404.71,284.667,404.71,284.667,406z" transform="matrix(1, 0, 0, 1, 5.684341886080802e-14, 1.4210854715202004e-14)"/><path fill="#303E5C" d="M590.333,403c-1.29,0-1.29,2,0,2S591.623,403,590.333,403z" transform="matrix(1, 0, 0, 1, 5.684341886080802e-14, 1.4210854715202004e-14)"/><path fill="#303E5C" d="M153.707,253.96c-0.222-0.223-0.444-0.444-0.667-0.667c-0.912-0.913-2.327,0.501-1.414,1.414&#10;&#9;&#9;&#9;c0.222,0.223,0.444,0.444,0.667,0.667C153.205,256.287,154.62,254.873,153.707,253.96z" transform="matrix(1, 0, 0, 1, 5.684341886080802e-14, 1.4210854715202004e-14)"/>
</svg>